<?xml version="1.0" encoding="iso-8859-1"?>
<!-- Generator: Adobe Illustrator 19.1.1, SVG Export Plug-In . SVG Version: 6.00 Build 0)  -->
<svg version="1.1" id="Layer_1" xmlns="http://www.w3.org/2000/svg" xmlns:xlink="http://www.w3.org/1999/xlink" x="0px" y="0px"
	 viewBox="0 0 48 48" style="enable-background:new 0 0 48 48;" xml:space="preserve">
<polygon style="fill:#CFD8DC;" points="44,42 4,42 7,27 41,27 "/>
<path style="fill:#455A64;" d="M36,36H12c-1.1,0-2-0.9-2-2v0c0-1.1,0.9-2,2-2h24c1.1,0,2,0.9,2,2v0C38,35.1,37.1,36,36,36z"/>
<path style="fill:#FFA726;" d="M23,6l7.756,9.049C31,15.537,31,16.269,31,17l-3.684,8.194C27.074,26.414,26.221,27.512,25,28
	c-0.706,0.265,0.141-0.658-1.945,0c0.028-1.673-0.594-3.354-1.871-4.63c-0.223-0.224-0.461-0.419-0.707-0.602l3.205-1.049L23.438,17
	L18,13c0,0-8,9-9-7H23z"/>
<rect x="15" y="17" style="fill:#64B5F6;" width="18" height="18"/>
<path style="fill:#FFA726;" d="M22.219,27.781L22.219,27.781c-1.355,1.096-3.105,0.582-4.145-0.558L10,18
	c-0.521-0.569-1-3.294-1-3.916C9,11.084,9,6,9,6l10,7v5l3.381,5.039C23.801,24.877,23.582,26.643,22.219,27.781"/>
<path style="fill:#FFCDD2;" d="M19.125,26.701c0.713,0.699,1.857,0.69,2.559-0.023c0.699-0.714,0.689-1.859-0.025-2.559
	C20.947,23.419,18.412,26.001,19.125,26.701"/>
<rect x="15" y="34" style="fill:#1E88E5;" width="18" height="2"/>
<polygon style="fill:#D68022;" points="23.438,17 19,13.736 19,17 "/>
</svg>
