<svg xmlns="http://www.w3.org/2000/svg" viewBox="0 0 400 225.2" xmlns:v="https://vecta.io/nano"><path fill="#074589" fill-opacity="0.65" fill-rule="evenodd" d="M68.15 1.25c.138.688.25 1.768.25 2.4 0 .998.151 1.15 1.142 1.15 1.842 0 2.566 10.463.758 10.948-1.062.284-6.3.337-6.3.063 0-.103.45-1.206 1-2.449l1-2.345c0-.046-2.683-2.361-5.962-5.145L54.075.809l-9.937 2.044-10.037 2.128c-.527.446 1.275 4.248 2.113 4.458.542.136.986.315.986.398s.547 2.162 1.216 4.621 1.073 4.597.9 4.751c-.323.287-5.332 1.591-6.112 1.591-.408 0-.333-1.78.233-5.495.218-1.429.062-1.52-10.477-6.143l-3.639-1.596-9.653 3.717C4.359 13.327.012 15.177.008 15.394c-.031 1.533 2.245 4.643 3.254 4.447 1.016-.197 1.249.134 5.379 7.625 4.008 7.269 4.434 7.883 5.938 8.559 2.225 1.001 3.25 1.93 3.945 3.575l1.227 2.87c.63 1.459.624 1.486-.758 3.54-.766 1.139-1.393 2.232-1.393 2.429 0 1.205 4.378 8.074 6.544 10.266l2.474 2.506 5.591-1.827c31.323-10.238 51.485-10.363 88.156-.548 6.685 1.79 7.441 1.917 8.2 1.38 2.293-1.624 4.008-3.588 6.469-7.408l2.701-4.193-.94-2.407c-1.994-5.104-1.166-8.203 2.713-10.163 3.041-1.536 3.078-1.586 7.052-9.546l3.446-6.901 1.297.101c1.171.091 1.384-.072 2.197-1.684 1.48-2.936 1.723-2.726-7.778-6.738l-8.678-3.665-6.07 3.81-6.069 3.81-.482 2.985c-.545 3.378-.178 3.234-4.672 1.825l-2.048-.642 1.26-4.4c1.055-3.684 1.397-4.42 2.104-4.522s2.902-3.954 2.437-4.275c-1.099-.758-19.398-4.043-20.035-3.596-.428.299-2.808 2.547-5.289 4.996l-4.512 4.451.977 2.21.978 2.21-1.512-.217c-.831-.12-2.726-.331-4.211-.469l-2.7-.252.002-1.668c.002-.917.118-3.153.26-4.968l.257-3.3H90V0H67.9l.25 1.25m14.787.212l5.463.262v2.365l-9.1-.294c-9.24-.298-9.681-.384-9.694-1.895-.007-.805 3.366-.916 13.331-.438M58.605 7.204c3.429 2.765 4.896 4.189 4.738 4.6-.346.903-.423.858-5.276-3.038l-4.526-3.634-7.47 1.453-8.122 1.646c-.453.133-.71-.116-.845-.82-.106-.556-.083-1.024.051-1.04s3.575-.716 7.645-1.555l8.12-1.571c.396-.025 2.954 1.757 5.685 3.959m54.371-1.556c9.108 1.871 8.421 1.637 7.865 2.676-.417.778-.557.764-7.933-.765-4.129-.856-7.782-1.557-8.117-1.558S102.33 7.62 100.066 9.6c-4.532 3.963-4.466 3.921-4.466 2.839 0-.676 8.364-8.439 9.092-8.439.143 0 3.87.742 8.284 1.648m-31.542-.589c4.21.243 4.427.298 4.319 1.098-.062.464-.2 3.104-.305 5.868l-.192 5.025 8.272.686 8.891.675c.477-.009.833-1.186 1.546-5.111.51-2.805.992-5.211 1.071-5.346.117-.199 12.457 1.773 13.411 2.143.146.057-.414 2.4-1.245 5.208s-1.396 5.172-1.256 5.255c.483.287 15.79 4.637 15.906 4.521.065-.064 1.289-2.494 2.722-5.399s2.727-5.282 2.875-5.282c.462 0 10.334 3.684 10.659 3.978.491.443-5.985 13.64-6.591 13.434-43.47-14.839-79.15-15.171-121.633-1.133-3.033 1.003-5.583 1.755-5.665 1.672-.519-.521-7.842-13.661-7.696-13.807C6.858 18.209 18.043 14 18.598 14c.302 0 1.86 2.43 3.461 5.4 1.634 3.031 3.159 5.4 3.478 5.4.557 0 16.118-4.034 16.413-4.255.083-.061-.498-2.493-1.291-5.404s-1.401-5.326-1.35-5.367c.343-.285 13.534-2.821 13.642-2.623.074.137.722 2.634 1.439 5.549 1.163 4.733 1.394 5.3 2.156 5.304 1.742.008 14.887-.862 15.783-1.044l.929-.19-.285-5.985-.285-5.985 2.156.002c1.186.001 4.151.117 6.59.257m-22.807 6.02c3.057 2.394 3.393 2.787 3.168 3.7-.364 1.478-.616 1.623-2.997 1.727l-2.15.094-.692-3c-1.007-4.364-1.158-5.2-.942-5.2.107 0 1.733 1.206 3.613 2.679m44.124 1.784c-.88 4.808-.457 4.279-3.228 4.039-2.114-.183-2.309-.286-2.707-1.429-.498-1.427-.628-1.256 3.384-4.444 3.561-2.829 3.422-2.929 2.551 1.834m-77.13-.788c5.269 2.18 5.979 2.584 5.979 3.4 0 1.236.11 1.261-6.294-1.444l-5.609-2.37-8.149 3.15c-7.409 2.864-8.194 3.09-8.653 2.486-.855-1.124-.501-1.326 7.926-4.543 9.787-3.735 7.654-3.637 14.8-.679m119.02.755c8.542 3.199 8.449 3.146 7.475 4.265l-.716.822-7-2.752c-8.413-3.309-7.002-3.272-12.849-.341-4.638 2.326-5.774 2.634-4.937 1.342.27-.417 9.911-6.115 10.427-6.162.022-.002 3.442 1.27 7.6 2.826M26.598 15.842c4.974 1.99 5.165 2.218 4.362 5.211-.209.778-4.625 2.246-5.124 1.704-.24-.261-4.236-8.327-4.236-8.55 0-.348.243-.268 4.998 1.635m108.602-.79c0 .526-3.714 8.547-3.951 8.534-3.764-.213-6.078-1.954-5.321-4.005.429-1.163 9.272-5.482 9.272-4.529m-49.6 7.562a236.431 236.431 0 0 1 47.265 9.048c6.12 1.836 6.059 1.793 4.224 2.98-1.206.78-1.434.802-3.095.297-10.996-3.347-21.652-5.88-31.794-7.558-25.512-4.221-46.407-2.425-74.74 6.423l-7.14 2.23-1.36-1.037c-1.96-1.495-1.948-1.503 4.74-3.534 19.084-5.794 34.453-8.485 53.7-9.401.66-.032 4.35.217 8.2.552m-6.744 5.49c-.797.797-12.544.846-12.391.052.132-.69.664-.773 6.14-.956 5.652-.189 7.13.025 6.251.904m13.527-.259c1.086 1.024-.129 1.267-5.28 1.056-5.255-.215-7.237-.785-5.903-1.695.893-.61 10.438-.064 11.183.639m-27.983.541c0 .737-1.424 1.13-5.774 1.596-2.406.257-4.881.569-5.5.693-.939.188-1.126.09-1.126-.589 0-.699.407-.881 2.9-1.292 1.595-.263 3.08-.536 3.3-.605.999-.314 6.2-.149 6.2.197m38.277.279c3.105.555 3.723.787 3.723 1.4 0 .908-.42.915-5.925.108-4.561-.669-6.075-1.109-6.075-1.764 0-.619 4.086-.493 8.277.256m7.185 1.932c-.492 1.062-1.232 1.298-1.7.542-.299-.485.849-1.539 1.677-1.539.375 0 .38.228.023.997m-59.983.034c.241.733-1.898 1.432-6.279 2.054-5.629.8-5.8.804-5.8.148 0-1.308 11.674-3.436 12.079-2.202m35.605.42c.26.782-1.139 1.004-6.25.99-4.912-.013-6.554-.408-5.231-1.258.853-.548 11.291-.304 11.481.268m10.481.176c2.427.415 2.635.525 2.23 1.18-.191.31-1.023.379-2.54.212a128.32 128.32 0 0 0-5.23-.43c-3.272-.197-4.349-.723-2.793-1.362 1.004-.413 4.587-.241 8.333.4m-24.365.149c0 .872-.173.905-6.3 1.212-5.567.28-5.7.267-5.7-.531 0-.906.867-1.029 8.3-1.181 2.99-.061 3.7.035 3.7.5m44.93-.122c2.479.498 3.508 1.268 2.733 2.043-.351.351-.785.347-1.792-.017-.73-.264-1.819-.48-2.419-.48-1.576 0-3.738-1.174-3.01-1.634.748-.474 1.788-.454 4.488.088M57.6 32.8c0 .675-.267.8-1.701.8-.936 0-2.96.36-4.499.8-3.288.94-5.122 1.016-5.767.239-.652-.785 2.022-1.733 6.167-2.185 5.38-.587 5.8-.562 5.8.346m50.493.837c2.203.576 2.949 2.119.833 1.724-5.961-1.113-7.886-1.619-8.049-2.118-.201-.617 4.285-.373 7.216.394m20.16.758c2.647.851 3.547 1.315 3.547 1.829 0 1.287-1.179 1.588-2.509.641-.668-.476-1.749-.865-2.403-.865-1.311 0-5.688-1.792-5.688-2.328 0-1.172 1.702-.998 7.053.723m-92.726-.511c-.127.661-.572.87-4.927 2.314-5.019 1.664-8.773 1.274-4.7-.488 4.809-2.081 9.86-3.039 9.627-1.826m48.073.525c19.993 1.135 50 7.88 50 11.24 0 .961.465 1.037-6.382-1.044-36.198-11.001-65.017-11.308-98.215-1.044-6.922 2.14-6.812 2.127-6.458.717.58-2.313 25.317-8.247 39.455-9.464 9.805-.844 12.854-.902 21.6-.405m-39.85.31c.489.791-.698 1.482-3.55 2.065-1.444.296-5.715 1.36-7.5 1.87-.505.144-.7-.03-.7-.627 0-.455.225-.828.5-.829s1.04-.287 1.7-.634c.915-.481 6.15-1.706 9.076-2.125.152-.021.366.105.474.28m73.961.9c7.147 1.781 7.783 2.059 7.126 3.121-.343.555-2.491.135-8.237-1.61-3.09-.939-3.62-1.25-3.222-1.895.358-.579.522-.565 4.333.384m17.489 1.567c0 .212-.36.579-.8.814-.678.363-.8.304-.8-.386 0-.547.262-.814.8-.814.44 0 .8.174.8.386m-112.892.489c-.247.742-1.108.865-1.108.158 0-.348.285-.633.633-.633s.562.214.475.475m61.538.519c16.13.776 52.549 9.321 50.842 11.929-.316.482-1.148 1.811-1.85 2.952l-1.276 2.075-1.881-.58c-40.297-12.437-61.793-12.928-97.435-2.227l-9.073 2.724-1.795-3.192c-.987-1.755-1.746-3.23-1.686-3.277.376-.298 8.192-2.845 12.873-4.195 14.63-4.22 34.337-7.11 44.635-6.544l6.646.335m-54.246.754c0 .783-6.437 3.092-7.109 2.55-.636-.513.38-1.289 3.059-2.337 2.249-.88 4.05-.974 4.05-.213m101.785.681c2.232.835 2.633 1.264 1.715 1.835-.762.474-2.286.156-4.409-.919-3.35-1.698-1.278-2.402 2.694-.916M85.7 46.214c9.347.54 19.267 2.496 34.7 6.843 11.584 3.262 10.779 2.805 8.639 4.905l-1.762 1.729-3.739-1.224c-33.652-11.027-59.37-11.353-89.974-1.14l-6.349 2.119-1.675-1.707-1.675-1.707.967-.368c6.288-2.388 21.653-6.475 29.368-7.812 11.245-1.949 19.077-2.356 31.5-1.638M250.164 59.75c-.662 1.725 5.031 8.94 7.324 9.284 4.121.618 5.178.044 8.391-4.555 3.448-4.936 3.429-5.279-.296-5.279h-2.732l-1.691 2.411c-1.98 2.822-1.88 2.822-3.854-.011l-1.532-2.2-2.692-.118c-2.078-.092-2.744.015-2.918.468m138.704.182c-1.07 1.07-4.868 7.472-4.868 8.205 0 1.112 4.379 1.381 5.812.357.996-.712 6.588-7.688 6.588-8.219 0-1.329-6.261-1.614-7.532-.343m-41.168-.067c-.391.158-.5 4.651-.5 20.578v20.377l1.026.39c1.315.5 4.228.502 5.539.003l1.016-.386.11-6.982.109-6.982 4.389 7c5.023 8.012 4.393 7.358 7.338 7.619 6.509.578 6.582-.484.657-9.633-2.547-3.933-4.547-7.353-4.445-7.6s1.913-2.397 4.023-4.777c5.794-6.536 5.606-7.517-1.362-7.1-2.458.147-2.264-.024-6.78 6.001l-4.02 5.364V71.911c0-10.414-.076-11.854-.633-12.068-.747-.287-5.744-.27-6.467.022M.3 103.1l.453 57.3c4.02 27.504 22.991 50.938 48.847 60.336 40.238 14.626 84.664-6.876 97.978-47.42 3.834-11.675 3.998-14.491 4.012-68.616l.01-43.1H.4l-.1 41.5m195.244-39.936l-.944.765v37.063l1.9.347c1.074.196 2.726.197 3.8.001l1.9-.347.2-15.145.2-15.145 5.168 15.04 5.167 15.04 1.377.454c1.613.532 5.39.308 6.205-.368.31-.258 2.976-7.258 5.924-15.555l5.359-15.087.2 15.387.2 15.386 1.874.362c1.122.217 2.567.216 3.6-.001l1.726-.364.104-18.495c.125-22.153.709-20.102-5.724-20.102-6.863 0-5.98-1.099-11.987 14.9-2.374 6.325-4.43 11.5-4.568 11.5s-2.118-5.175-4.4-11.5c-4.624-12.817-5.113-13.843-6.895-14.465-2.246-.783-9.288-.559-10.386.329M74.4 101.8v37.8H2.8v-37.533l.267-37.8c.146-.147 16.256-.267 35.8-.267H74.4v37.8m74.4 7.167c0 48.297.073 46.233-1.643 46.233H146v-12.8h-5.2v-28.788l1.2-1.95c1.279-2.079 1.576-5.474.941-10.762l-.252-2.1-2.045-.003-2.044-.004-7.1-9.83-7.1-9.831v-4.166c0-2.511-.159-4.166-.4-4.166s-.4 1.529-.4 3.788c0 3.603-.062 3.876-1.257 5.572-.691.98-3.619 5.531-6.506 10.111l-5.248 8.329-2.295.12-2.294.12v11.084l1.4 1.676 1.4 1.676V142.4H104v13.2h-4.8l.001-22.9.001-22.9 1.998-3 1.998-3 .001-6.1.001-6.1-2.1-.006c-2.862-.008-2.412.59-8.052-10.691-4.699-9.399-5.048-10.256-5.054-12.4-.004-1.634-.119-2.129-.394-1.703-.213.33-.391 1.365-.394 2.3l-.006 1.7h-9.6v-2.2c0-1.21-.18-2.2-.4-2.2s-.4-.54-.4-1.2V64h72v44.967m154.7-43.335c-.573.334-.7.98-.7 3.566v3.158l-1.887.122c-3.539.229-3.571 6.012-.034 6.243l1.853.12.15 8.48c.166 9.359.509 10.959 2.758 12.851 2.441 2.054 10.051 2.286 11.466.35.91-1.244.499-5.952-.506-5.805-5.801.845-5.8.847-5.8-8.771V78.8h3.192c3.676 0 3.755-.089 3.532-4.021L317.4 72.6l-3.3-.116-3.3-.116v-3.17c0-2.725-.109-3.228-.774-3.584-.989-.53-5.608-.517-6.526.018M10.807 89.7c.008 23.749.057 24.25 2.965 30.1 11.789 23.718 45.588 20.333 52.719-5.28.832-2.988.875-4.023 1.014-24.42l.146-21.3H10.8l.007 20.9M32.4 70.78c0 .209.565.907 1.255 1.553 1.552 1.45 1.411 3.267-.252 3.267-1.286 0-2.154 1.688-1.903 3.7.215 1.717.024 1.813-1.391.7-1.192-.938-1.709-1.013-1.709-.249 0 .817 1.135 1.61 2.334 1.631.733.012 1.099.263 1.199.818.293 1.633 2.541 3.483 3.96 3.258.711-.113 1.407-.019 1.548.209.961 1.554-6.001 3.329-7.841 1.999-1.478-1.068-2.399-3.183-2.399-5.512-.001-3.117-4.466-7.447-5.799-5.624-.358.489-1.097.67-2.732.67-2.546 0-3.497.855-2.67 2.4.331.618.304.8-.116.8-2.268 0-2.806 3.521-.673 4.405.672.278 1.671.859 2.22 1.291l.998.785-1.015 1.014c-2.144 2.144-.895 4.505 2.383 4.505 2.136 0 2.153.01 2.278 1.3.101 1.048.284 1.278.944 1.188 1.36-.184 2.898 1.714 1.845 2.278-1.433.767-3.974.549-4.264-.366-.517-1.628-5.4-2.121-5.4-.546 0 .31-.45.768-1 1.019-1.202.548-1.457 3.45-.381 4.343.494.41.514.58.1.843-1.508.956-1.519.842-1.519-15.859V70.4h10c6.044 0 10 .15 10 .38m4.945.22c-.127.33-.369.6-.539.6s-.532-.27-.806-.6c-.421-.507-.337-.6.538-.6.757 0 .975.162.807.6M44 70.586c0 .102-.36.379-.8.614-.639.342-.8.304-.8-.186 0-.347.347-.614.8-.614.44 0 .8.084.8.186m6.991 2.291c.648 2.165.679 2.758.249 4.7-1.654 7.452-1.402 9.698 1.523 13.583.995 1.322 1.002 1.373.246 1.8-3.359 1.898-4.42 4.891-2.841 8.011 1.281 2.533 1.229 3.654-.22 4.731-1.862 1.385-4.802-1.043-3.597-2.972.247-.395.449-1.354.449-2.13 0-1.294.6-2.897 1.275-3.408.732-.555 1.13-2.695.892-4.8-.171-1.513-.108-2.382.187-2.564.521-.322.604-2.483.107-2.791-.187-.115-.363-1.485-.392-3.044-.034-1.814-.272-3.147-.661-3.703-.335-.478-.608-1.713-.608-2.75 0-1.531-.186-2.029-1-2.669-1.209-.951-1.242-1.328-.2-2.271.44-.398.8-1.056.8-1.462 0-2.249 3.009-.869 3.791 1.739M65.8 90.2c0 14.606-.134 20.262-.526 22.2-.921 4.557-6.406 14.514-6.458 11.724-.009-.482-.196-.988-.416-1.124-.66-.408-.462-1.8.256-1.8.611 0 1.702-1.055 1.731-1.673.007-.15-.347-.387-.787-.527-.634-.201-.718-.406-.406-.99 1.775-3.316-1.566-6.73-5.334-5.451-2.442.829-3.721.811-4.228-.059-.224-.385-.41-.52-.414-.3-.021 1.431 3.73 2.302 5.269 1.224 1.367-.957 2.459-.824 2.174.265-.157.601.055 1.196.653 1.832.81.863.829.985.225 1.427-.434.317-.592.839-.462 1.52.109.571.001 1.16-.239 1.309-.721.445-.495 2.396.362 3.13 1.589 1.361 1.112 2.017-2.399 3.293-1.803.655-2.334 1.071-2.934 2.3-.771 1.579-1.804 1.94-2.646.926-.354-.427-.363-.788-.035-1.4.601-1.124-.467-1.148-1.237-.028-.388.564-.813.726-1.449.553-1.292-.351-1.104-1.432.397-2.286l1.291-.736-.948-.507c-1.282-.687-.427-1.184 1.435-.834 1.454.272 3.725-1.192 3.725-2.401 0-.794-1.586-1.945-3.329-2.415l-2.229-.611c-.355-.103-.689.321-.918 1.167-.333 1.223-2.026 1.587-3.059.657s-1.076-6.627-.056-7.499c1.207-1.035.375-2.293-4.527-6.838-2.279-2.114-4.386-4.294-4.681-4.846s-.764-1.002-1.042-1.002c-.498 0-.646.328-1.129 2.5-.295 1.324-1.12 1.421-1.914.225l-.581-.876-1.167.83c-.643.457-1.949 1.064-2.904 1.35-1.118.334-2.096.991-2.748 1.845-1.253 1.644-2.23 1.68-3.379.126-.553-.748-1.246-1.2-1.839-1.2-2.404 0-3.304-1.78-1.498-2.963 1.227-.804 1.277-1.34.141-1.509-2.381-.354-1.664-2.923.738-2.643 1.111.13 1.288.043 1.103-.541-.141-.445.074-.853.599-1.134.591-.316.819-.316.819-.002 0 1.439 2.407 2.657 4.649 2.353 2.176-.295 3.076-.77 6.825-3.602 2.173-1.641 3.346-1.397 2.25.468-.897 1.527-.096 2.371 2.252 2.375.783.002 1.93.267 2.548.589 1.201.627 2.676.151 2.676-.864 0-.811-.808-1.045-3.456-1-2.759.047-3.197-.43-1.931-2.103 1.035-1.369.753-2.224-.733-2.224-1.242 0-1.32-.083-1.32-1.398 0-1.491.067-1.538 2.84-1.997 2.724-.45 3.4-1.129 3.4-3.414 0-1.772-.095-1.991-.862-1.991-.81 0-.822-.044-.2-.731 1.567-1.732.148-4.069-2.471-4.069-2.072 0-2.24-.306-.821-1.5.9-.757 1.317-.897 1.658-.556.713.713 1.558.535 3.399-.713 1.739-1.179 2.861-1.238 3.726-.196.325.391.664.436 1.184.158.401-.215 1.028-.275 1.394-.135.656.252.653.667-.019 2.835-.223.716-.077.969.733 1.277 1.213.461 1.687 1.694 1.084 2.82-.472.882-.163 3.465.46 3.85.221.137.183.462-.093.794-.357.43-.347 1.306.044 3.711.606 3.737.442 4.432-.984 4.159-1.03-.197-1.032-.191-1.032 2.6 0 3.726-.755 4.511-2.4 2.496-1.18-1.446-3.2-1.325-3.2.191 0 .72.847.802 1.504.145.624-.624 1.757.716 3.319 3.925 1.355 2.783 1.748 3.048 3.715 2.505 3.119-.861 3.984-2.808 2.626-5.917-1.234-2.826-.154-7.157 1.805-7.234.202-.008.663-.282 1.023-.608s1.455-1.014 2.432-1.529c2.489-1.312 3.419-4.355 2.194-7.178-.222-.511-.12-.7.377-.7.374 0 .771.348.882.772.264 1.011 1.266 1.372 2.039.735.542-.447.583-.307.347 1.177-.49 3.086-2.123 5.202-5.663 7.343-4.637 2.803-5.681 4.752-3.954 7.387 1.723 2.629 3.948.715 3.626-3.119-.282-3.374.534-3.615 2.115-.625l.987 1.866-.92 2.218c-.993 2.397-.894 3.043.47 3.052.482.003 1.144.176 1.473.383 1.022.647-.236 1.411-2.323 1.411-1.716 0-1.879.084-1.935 1l-.1 1.5c-.054.686-.954.627-2.314-.154-1.292-.741-5.325.819-5.325 2.061 0 .8.201.757 1.914-.407 1.795-1.22 2.085-1.231 3.481-.133 1.267.997 2.242.67 2.607-.875.213-.901.796-1.212 3.324-1.771.791-.175 1.298-.658 1.7-1.622.95-2.273.795-2.729-.826-2.425-1.522.285-1.717-.202-1.031-2.574.332-1.147-.354-4.551-1.198-5.942-.515-.851-.495-.987.206-1.4 3.163-1.863 4.2-3.718 4.9-8.766.288-2.082-.543-3.13-1.489-1.876-.528.699-.819.796-1.426.471-.419-.224-1.418-.407-2.219-.407h-1.456l.399 1.446c.48 1.738.224 5.019-.455 5.837-.619.746-1.631.384-1.631-.582 0-.404-.168-.838-.374-.965-.964-.595-2.07-6.695-1.3-7.17.179-.111 1.268.074 2.419.412s2.399.494 2.774.348c1.039-.405-.796-1.745-2.834-2.071l-1.619-.259.911-.738c1.253-1.014 1.521-.95 3.064.734 1.535 1.677 1.743 1.615 2.04-.6.183-1.362.062-1.726-.823-2.497-.571-.496-1.236-1.503-1.479-2.238s-.67-1.337-.951-1.337-1.074-.54-1.765-1.2-1.517-1.2-1.836-1.2-.694-.185-.833-.41c-.17-.275 1.892-.374 6.276-.3l6.53.11v19.6M40.616 72.3c-.015 1.041.102 1.113 2.184 1.335 1.712.183 1.247.249-2.1.3-2.801.042-4.3-.083-4.3-.359 0-.233.19-.306.423-.162.822.508 2.361-.21 2.614-1.22.337-1.343 1.198-1.265 1.179.106m14.08.2c.272.215.39.562.26.771-.27.437 1.011 1.997 1.429 1.739.239-.149 3.215 3.083 3.215 3.492 0 .082-1.048.073-2.328-.019-4.538-.329-6.007 4.422-3.248 10.505 1.391 3.07 1.341 3.599-.171 1.802-2.013-2.392-2.765-6.067-2.003-9.79.68-3.326.82-6.934.33-8.521-.3-.973 1.269-.96 2.516.021m200.876-.379c-12.296 3.493-13.634 24.841-1.816 28.965 3.991 1.393 14.314.661 16.544-1.173.595-.489.691-5.348.113-5.705-.213-.131-1.698.17-3.3.67-7.475 2.333-13.113.281-13.113-4.772V88.8h8.551c10.107 0 9.686.187 9.578-4.262-.229-9.489-7.547-14.977-16.557-12.417m27.949.012c-9.77 2.768-9.463 12.831.523 17.124 4.394 1.888 5.156 2.476 5.156 3.976 0 3.011-4.441 3.689-9.374 1.43-2.919-1.336-3.426-1.039-3.426 2.004 0 7.664 18.133 6.821 20.284-.943 1.577-5.693-.726-9.238-7.868-12.118-8.408-3.389-5.061-8.278 3.503-5.117 1.165.43 2.38.682 2.7.559.679-.261.817-3.859.193-5.026-.973-1.819-7.956-2.947-11.691-1.889m45.173-.124c-5.081 1.285-8.038 5.227-7.315 9.75.573 3.584 2.287 5.31 7.545 7.595 4.314 1.876 5.076 2.45 5.076 3.826 0 2.975-4.564 3.706-9.355 1.499-2.938-1.354-3.445-1.061-3.445 1.988 0 7.444 17.55 6.938 20.038-.576 1.882-5.687-.307-9.44-7.163-12.282-4.944-2.049-5.922-3.052-4.878-5.003.949-1.773 3.316-1.854 7.917-.271 2.935 1.01 3.27.799 3.28-2.061.013-3.754-5.776-5.963-11.7-4.465m53.453.163c-4.781 1.089-6.547 2.415-6.547 4.916 0 3.475.689 3.848 4.223 2.285 6.625-2.93 10.494-1.984 11.158 2.727l.268 1.9h-3.17c-12.045 0-18.38 8.205-11.731 15.193 3.195 3.359 12.663 3.625 14.648.413.422-.683.905-.455 1.156.546.347 1.383 3.304 1.939 5.622 1.058l1.026-.39V90.483c0-11.998-.3-13.742-2.771-16.098-2.529-2.412-8.696-3.395-13.882-2.213M81.2 72.781c0 .21-.213.85-.474 1.422l-.474 1.041-.512-.922c-.772-1.391-.645-1.922.46-1.922.55 0 1 .172 1 .381m5.2-.167c0 .778-1.357 2.18-1.656 1.71-.674-1.063-.381-1.924.656-1.924.55 0 1 .096 1 .214m-7.934 6.29l-.635 1.618-.275-1.161c-.15-.639-.374-2.239-.496-3.556l-.222-2.394 1.132 1.938c1.11 1.9 1.119 1.969.496 3.555m5.258-.147c-.785 1.999-.939 2.019-1.895.245-.729-1.354-.73-1.447-.029-3.002l.723-1.604.924 1.358c.893 1.316.902 1.412.277 3.003m4.862-2.531c.772 1.433.334 3.267-.877 3.671-.954.318-1.748-2.707-1.029-3.924.877-1.486.976-1.473 1.906.253m173.535 1.856c1.09.557 2.276 2.755 2.278 4.218l.001 1.3h-5.2c-5.811 0-5.872-.038-4.655-2.913 1.257-2.969 4.611-4.123 7.576-2.605M21.499 79.206c.944.743 1.08.756 1.733.165 1.715-1.552 3.074.597 3.137 4.959.029 2.019.145 2.249 2.231 4.436 2.649 2.777 2.67 3.006.47 5.165-1.868 1.834-3.338 1.991-2.916.311.337-1.344-.243-1.962-1.178-1.255-1.056.8-1.376.756-1.376-.187 0-1.437-1.488-2.51-3.068-2.214-2.413.453-3.545-1.355-1.332-2.126.66-.23 1.2-.509 1.2-.62 0-.955-1.227-2.345-2.847-3.227-2.947-1.604-2.529-3.413.789-3.413 1.701 0 1.752-.033 1.12-.731-.789-.872-.848-1.527-.162-1.804.872-.352 1.15-.284 2.199.541m69.937 2.234c.676 1.768.674 1.893-.038 3.215l-.74 1.375-1.146-1.841-1.145-1.84.849-1.375c1.109-1.794 1.379-1.737 2.22.466M43.6 81.162c0 .626.262 1.88.582 2.788.518 1.468.515 1.65-.029 1.65-.367 0-.558.28-.477.7.233 1.208 2.144.926 2.035-.3-.406-4.56-.633-5.408-1.542-5.757-.41-.157-.569.1-.569.919m43.043 2.143c-.132.492-.581 1.332-.997 1.866l-.757.972-.868-1.703-.869-1.702 1.077-1.411 1.076-1.412.79 1.247c.49.775.698 1.587.548 2.143M81.588 83c-.005.22-.335 1.12-.733 2l-.724 1.6-.901-1.752c-.887-1.727-.889-1.772-.165-3.12l.735-1.368.898 1.12c.494.616.894 1.3.89 1.52M36.4 81.567c0 .376-.889 1.233-1.28 1.233-.176 0-.32-.433-.32-.963 0-.765.164-.919.8-.753.44.115.8.332.8.483m89.2 1.846c0 .489-.285 1.126-.634 1.415-1.46 1.212-2.916-1.621-1.54-2.997.842-.842 2.174.127 2.174 1.582m-36.01 4.731c-.006.251-.34 1.176-.741 2.056l-.731 1.6-.671-1.577c-1.082-2.544-1.111-3.148-.221-4.589l.843-1.367.765 1.71c.421.941.761 1.916.756 2.167M128 86.818c0 .942-1.37 2.572-1.891 2.249-.807-.498-.946-2.238-.263-3.282.742-1.131 2.154-.455 2.154 1.033m-5.216-.322c.583 1.037.559 1.143-.485 2.187l-1.097 1.097-.873-.873c-.872-.872-.872-.875-.104-2.301.885-1.644 1.679-1.678 2.559-.11m-44.376.528c.363 1.1.359 1.69-.018 2.6-.776 1.873-1.19 1.378-1.19-1.424 0-2.879.489-3.355 1.208-1.176m5.253.29c.313.585.242 1.17-.282 2.333-.872 1.934-1.085 1.935-1.955.005-1.335-2.958.743-5.129 2.237-2.338m10.342-.11c.862 1.211.63 3.558-.417 4.205-.788.487-2.08-3.016-1.568-4.253.604-1.458.918-1.45 1.985.048m36.409 4.366c-.297.719-.804 1.23-1.218 1.23-1.17 0-1.599-2.095-.753-3.676.807-1.509 2.658.788 1.971 2.446M43.5 89.464c-1.7.895-1.382 2.344.411 1.875.647-.169.831-.499.77-1.38l-.081-1.116c0 .023-.495.303-1.1.621m81.466.74c.673 1.027.362 2.375-.707 3.07-1.148.746-2.157-1.759-1.26-3.128.786-1.2 1.149-1.19 1.967.058m266.234.955c0 4.158-6.98 7.041-8.803 3.635-1.764-3.296.595-5.522 5.903-5.569l2.9-.025v1.959M119.797 90.9c.776 2.409-.721 4.08-1.993 2.224l-.873-1.275 1.034-.912c1.299-1.144 1.474-1.148 1.832-.037M80.4 91c0 .33-.18.6-.4.6s-.4-.27-.4-.6.18-.6.4-.6.4.27.4.6m11.387 1.622c.611 1.6.625 1.906.115 2.5-.319.373-.704 1.025-.856 1.449-.236.66-.349.689-.787.2-1.235-1.378-1.414-2.584-.642-4.31.947-2.115 1.311-2.088 2.17.161m41.607 1.358c.237.749-.739 3.22-1.273 3.22-.503 0-1.721-1.332-1.721-1.882 0-2.419 2.321-3.457 2.994-1.338m-5.646.339c.397 1.383-.573 3.472-1.473 3.174-1.302-.431-1.648-2.127-.703-3.454 1.077-1.513 1.685-1.435 2.176.28m-10.851.51c.763 1.342.112 3.571-1.043 3.571-1.285 0-1.662-2.918-.556-4.3.588-.735.827-.626 1.599.729m5.32-.259c.606.924-.018 3.43-.854 3.43-1.591 0-2.228-1.959-1.14-3.511.796-1.137 1.207-1.12 1.994.081M84.563 97.7l-.036 3.5H95.6v-6.8h5.6v8.4H76.4v-4.133c0-5.012-.28-4.719 4.38-4.581l3.82.114-.037 3.5m8.635.505c-.314.825-.546 1.007-.872.681s-.251-.741.284-1.557c.849-1.296 1.21-.759.588.876m42.135-.851c.742 1.133.525 1.446-1 1.446-1.21 0-1.381-.388-.719-1.626.546-1.02.961-.976 1.719.18m-79.841.684c.536 1.42-.054 2.862-1.092 2.668-1.174-.22-.833-3.906.361-3.906.145 0 .474.557.731 1.238m33.308.638c0 .288-.158.524-.351.524-.667 0-1.338-1.192-1.065-1.895.308-.795 1.416.278 1.416 1.371m41.536-.457c1.015 2.227.243 3.161-1.105 1.338-.921-1.246-.877-2.357.092-2.357.302 0 .757.458 1.013 1.019m-11.016 1.059c.389 2.905-.92 4.165-1.902 1.831-.487-1.16-.462-1.405.247-2.4 1.074-1.508 1.391-1.399 1.655.569m5.08-1.049c0 .373-.272.577-.667.5-1.003-.194-1.141-1.129-.166-1.129.491 0 .833.258.833.629m3.2 5.971v3h7.6v-6h5.6v8H108v-7.6h6v5.6h7.6v-6h6v3m4.957-2.367c.363.945.294 2.124-.174 2.998-.574 1.073-1.983.327-1.983-1.051 0-1.942 1.604-3.39 2.157-1.947m-15.157 2.968c-.5.808-1 .363-1-.89 0-1.281.004-1.284.623-.399.343.489.512 1.069.377 1.289m-81.8 1.877c0 .582-.238.922-.646.922-.356 0-1.531.649-2.612 1.442-2.009 1.475-2.831 1.587-5.463.748-.841-.269-.897-.201-.651.778.248.988.191 1.052-.736.819-1.926-.483-1.082 3.381.874 4.002.84.267 2.834 3.35 2.834 4.382 0 1.012-.645.735-2.069-.891-2.061-2.353-6.691-3.448-5.548-1.312.59 1.104.591 1.103-1.216 1.346-2.079.279-2.394.621-1.267 1.379 1.239.832 1.127 1.446-.364 2.009-1.083.408-1.34.378-1.801-.213-3.968-5.093-6.56-20.715-2.735-16.489a2.8 2.8 0 0 0 1.813.8c1.832 0 2.245.957 1.542 3.576-.281 1.045 1.04.869 2.945-.393 1.444-.956 1.934-1.556 2.131-2.609.383-2.042 5.541-3.422 5.997-1.605.292 1.165 1.644.669 3.471-1.275l.851-.905 1.325 1.284c.745.722 1.325 1.687 1.325 2.205M99.2 106l-.854 1.2H76.4v-2.4h23.654L99.2 106m-58.981 3.637c.352.681.551 1.326.443 1.434s-.398-.178-.644-.637c-.739-1.381-1.348-1.006-1.081.666.216 1.349.124 1.567-.914 2.162-2.858 1.638-3.007 3.754-.446 6.315 1.508 1.508 1.737 2.195.584 1.753-1.303-.5-1.837.163-1.17 1.452.445.862.477 1.145.114 1.011-.644-.236-1.153.139-2.001 1.473-.482.758-.911 1.005-1.485.855-1.257-.329-2.74.201-3.019 1.078-.676 2.131-3 2.335-3 .263 0-1.769-.783-2.229-4-2.349-3.485-.131-4.492-1.281-2.02-2.305 1.338-.554 1.461-.807.74-1.528-.83-.83.232-1.521 1.469-.958.833.38 1.011.357 1.011-.131 0-.325-.18-.591-.4-.591a.4.4 0 0 1-.4-.4c0-.955 1.571-.27 2.752 1.2 1.999 2.488 4.935 2.009 4.262-.695-.524-2.104-2.579-5.209-3.619-5.471-1.241-.311-1.305-1.331-.095-1.516.495-.075.857-.353.804-.617-.066-.325.275-.405 1.053-.25.943.189 1.457-.047 2.856-1.31 1.602-1.447 1.86-1.541 4.246-1.541 1.398 0 2.541-.135 2.541-.3 0-.741.838-.187 1.419.937m57.78 13.463l-.264 23.2-.263 9.3H92.4v-12.4H76.352l.124-1.5.124-1.5 7.9-.108 7.9-.109V112.4h-16v-1.333c0-1.931-.38-1.867 11.067-1.867H98l-.001 13.9m40.801-11.5c-.415.775-.838.8-13.752.8-12.816 0-13.352-.031-14.048-.8-.723-.799-.699-.8 13.752-.8 14.352 0 14.472.007 14.048.8m-48 14.4v12.4h-6.957c-5.6 0-6.999-.109-7.173-.561-.344-.898.09-1.039 3.197-1.039H82.8v-10.4h-3c-2.733 0-3-.071-3-.8s.267-.8 2.8-.8h2.8v-10h-2.776c-2.574 0-3.571-.32-2.946-.944.14-.141 3.375-.256 7.189-.256H90.8V126m-50.362-10.276c.021.702.336 2.626.7 4.276l.662 3 1.566.2c1.423.182 1.503.252.874.771-1.424 1.173-2.003 2.861-1.066 3.106.454.119.832.51.839.87.015.768 3.471 2.983 4.212 2.699.28-.108.607.06.727.373.122.318.532.48.933.369.393-.109-.063.176-1.013.634-6.339 3.054-15.712 2.442-22.797-1.488-2.822-1.566-7.873-6.098-6.822-6.12.36-.008.741.319.847.725.203.778 1.782 1.261 4.122 1.261 1.067 0 1.347.174 1.45.9.07.495.533 1.078 1.028 1.295s.9.6.9.851c0 1.698 3.212 1.043 4.065-.829.432-.947.518-.976 1.172-.384.668.605 2.36.49 2.365-.16.007-.993 1.942-2.618 2.533-2.127.976.81 1.573.155 1.28-1.405-.245-1.308-.212-1.356.764-1.11 1.523.382 1.361-1.325-.338-3.55-2.664-3.49-2.805-4.265-.941-5.16 1.601-.77 1.89-.62 1.938 1.003m98.667 12.576l.105 14.1h-8.41v13.2H120v-13.174l-4.5-.113-4.5-.113-.105-14.105-.105-14.105 14.105.105L139 114.2l.105 14.1M84 119.8v5h6v-10h-6v5m111.749-3.612c-.218.568 4.304 7.494 5.589 8.56 2.839 2.357 7.08.845 10.239-3.65 3.445-4.901 3.433-5.298-.157-5.298-2.998 0-3.208.15-5.841 4.169l-.621.947-1.344-2.094c-.74-1.153-1.598-2.349-1.908-2.659-.801-.801-5.647-.781-5.957.025m37.152.112c-2.079 1.847-5.476 8.182-4.695 8.754.862.63 3.291.717 4.729.171 1.091-.415 7.465-7.766 7.465-8.609 0-1.251-6.155-1.51-7.499-.316M116 128.2v11h17.2v-22H116v11m15.6.009v9.809l-7.1-.109-7.1-.109-.107-9.7-.107-9.7H131.6v9.809m-12.8-5.809v2.4h4.8V120h-4.8v2.4m6.4-1.856c0 .299.114 1.379.254 2.4l.255 1.856H130V120h-2.4c-1.757 0-2.4.146-2.4.544m-75.433.099c.691.265.879 1.726.233 1.807-4.277.535-5.019-1.084-.933-2.034.037-.009.352.093.7.227m224.862 1.586c-.458.457-.629 1.43-.629 3.578v2.949l-1.9.122-1.9.122v6l1.848.12 1.847.12.185 8.48c.252 11.593 1.118 13.413 6.836 14.375 5.466.92 7.964-.373 7.964-4.124 0-2.871-.325-3.362-1.841-2.786-4.156 1.58-4.81.447-4.964-8.609l-.124-7.343 3.319-.116 3.319-.117.242-1.5c.134-.825.134-2.175 0-3l-.242-1.5-3.295-.116-3.294-.116v-3.17c0-3.781-.225-3.998-4.145-3.998-1.828 0-2.784.186-3.226.629m-218.315 5.296a40.481 40.481 0 0 1-2.68 2.075l-1.366.949.26-.975c.144-.536.264-1.191.267-1.456s.68-.603 1.505-.751 1.77-.421 2.1-.606c1.228-.689 1.187-.326-.086.764M84 131.6v5.2h5.6v-10.4H84v5.2m34.878-3.3l.122 1.9 2.3.12 2.3.12v-4.04h-4.844l.122 1.9m6.722-.1v1.8h4.4v-3.6h-4.4v1.8m76.8.331c-6.938 1.613-10.578 7.911-9.871 17.08.654 8.481 4.809 12.604 12.671 12.575 6.888-.025 9.302-1.675 9.118-6.234-.142-3.544-.575-3.8-3.246-1.917-5.628 3.966-10.442.815-10.442-6.835 0-7.634 4.531-10.779 10.16-7.054 2.848 1.885 3.61 1.394 3.61-2.325 0-4.393-5.474-6.806-12-5.29m23.747.039c-4.988 1.14-6.547 2.388-6.547 5.243 0 3.377.494 3.528 5.159 1.577 5.982-2.501 10.041-1.13 10.041 3.39v1.62h-2.927c-10.287 0-15.483 4.57-13.507 11.882 1.589 5.876 10.436 8.127 16.027 4.077l1.607-1.164v.988c0 1.662 3.125 2.434 5.774 1.427l1.026-.39v-9.756c0-13.815-.631-16.115-4.965-18.099-2.709-1.241-8.124-1.609-11.688-.795m30.453-.397c-.22.089-1.049.27-1.843.402-3.918.652-6.757 4.166-6.757 8.364 0 4.438 1.71 6.441 7.574 8.872 5.114 2.12 6.273 3.883 3.898 5.929-1.27 1.093-5.336.769-8.463-.675-2.807-1.296-3.414-.956-3.403 1.911.025 7.018 16.019 7.461 19.663.545 3.039-5.766.559-10.43-7.185-13.514-4.587-1.827-5.6-3.129-3.938-5.062 1.197-1.391 3.745-1.445 7.173-.15 3.198 1.209 3.547.994 3.4-2.09l-.119-2.505-1.806-.897c-1.673-.831-7.088-1.578-8.194-1.13m-137.533 3.694c-.433.433-.304 4.463.151 4.744.231.143 1.311.136 2.4-.014l1.982-.272V131.6h-2.133c-1.174 0-2.254.12-2.4.267M125.2 134v2.4h4.8v-4.8h-4.8v2.4m-50.8 48.455v40.455l-3.5-.272C30.607 219.503 1.397 186.623 2.727 145.9l.128-3.9H74.4v40.455m69.1-38.203c.884.237.9.352.9 6.395v6.153h2.447c2.342 0 2.436.038 2.205.9-.133.495-.244 1.215-.247 1.6-.005.656-1.109.7-17.554.7h-17.549l-.258-1.617c-.259-1.616-.259-1.616-1.751-1.354-1.987.349-4.562 1.482-5.242 2.306-.493.598-2.02.665-15.1.665H76.8v-14.8h13.6v12H106v-12.4h12v6.3l-.001 6.3 7.201-.117 7.2-.118v-6.316c0-3.474.12-6.436.267-6.582.331-.332 9.603-.344 10.833-.015m-98.424 5.846c-3.973 4.397-4.274 4.841-3.707 5.468.61.674-2.03 4.034-3.17 4.034-.927 0-4.155-3.735-3.801-4.397s-.997-2.139-7.05-7.742l-1.652-1.529-1.913 1.46c-4.456 3.402-8.192 4.458-14.283 4.039l-3.9-.268v.977c0 6.391 7.368 17.445 15.011 22.52 2.684 1.782 2.714 1.442-.411 4.54-3.028 3.001-3.033 3.023-1.2 4.8l1.4 1.357 1.5-1.372a474.29 474.29 0 0 0 3.9-3.632c1.957-1.842 2.72-2.298 4.133-2.472 2.147-.265 2.253-.371 1.768-1.764-.369-1.057-.183-1.344 3.144-4.854l3.536-3.729 3.86 3.755 3.86 3.755-.65 1.258c-.862 1.667-.918 1.603 1.249 1.422 1.896-.158 1.909-.15 6.041 3.479 4.553 3.998 4.498 3.981 6.214 1.86l1.203-1.485-2.969-2.989-2.968-2.988.989-.684c5.431-3.754 11.986-13.838 14.826-22.808 1.098-3.467 1.171-3.364-2.051-2.899-6.026.871-10.35.215-15.484-2.349l-3.101-1.548-4.324 4.785M234.8 147.73c0 4.985-7.563 7.029-8.963 2.423-.792-2.606 1.797-4.549 6.063-4.552l2.9-.001v2.13m-179.09 2.344c1.728.552 4.111.862 7.785 1.013l5.294.217-.254 1.048c-.39 1.608-3.241 7.648-3.609 7.647-.179-.001-.92-.364-1.646-.807-1.336-.814-1.355-1.096-.171-2.477 1.42-1.655-.206-2.455-1.783-.877-.91.909-1.151.977-1.955.547-.504-.27-1.199-.383-1.544-.251-.896.344-.777 1.765.173 2.066s1.037 1.105.2 1.8c-.847.703-.744 1.5.234 1.811.565.179 1.122-.006 1.726-.573 1.12-1.053 1.171-1.049 2.485.169l1.087 1.007-1.953 2.893c-3.945 5.843-9.374 10.299-13.316 10.929l-1.691.271 2.955-4.373c5.239-7.752 6.052-12.396 2.773-15.834-1.346-1.411-2.266-1.388-3.961.1-1.755 1.541-2.221 1.392-5.679-1.816-.076-.071 1.417-1.744 3.32-3.718l3.459-3.588 1.79 1.001c.985.55 2.911 1.358 4.281 1.795M29.4 151.37l3.6 3.356-1.581 1.637c-1.888 1.954-2.055 1.974-3.834.453-1.86-1.59-2.15-1.527-3.192.684-2.789 5.919-1.816 9.143 5.455 18.065l1.112 1.366-1.98-.259c-8.147-1.063-20.052-13.39-21.23-21.981l-.259-1.891h3.884c4.542 0 8.542-1.13 11.954-3.378 1.139-.75 2.161-1.374 2.271-1.386s1.82 1.488 3.8 3.334m-16.578 5.203c-.379.457-.294.755.422 1.471l.897.897-.87.578c-.879.584-1.17 1.849-.518 2.252.194.12.808-.139 1.363-.576 1.276-1.004 1.764-1.003 2.084.005.27.85 1.574 1.089 2.018.37.146-.236-.148-.87-.653-1.408l-.92-.978.878-.615c.913-.64 1.148-1.554.501-1.954-.207-.128-.747.165-1.2.651l-.823.884-1.123-1.075c-1.297-1.243-1.417-1.272-2.056-.502m22.378 2.191l2.2 1.954-.981 1.053-.981 1.053-2.079-2.312c-1.916-2.13-2.03-2.367-1.457-3.012.838-.943.797-.959 3.298 1.264m9.359-1.364c.943.713 1.499-.011-7.316 9.532l-6.957 7.532-.801-.802-.802-.801 1.359-1.609c3.504-4.151 13.002-14.396 13.358-14.411.22-.008.742.243 1.159.559m-16.959 1c.833.66 1.759 1.207 2.058 1.216s1.61.976 2.916 2.15l2.375 2.134-3.347 3.65c-3.904 4.258-3.683 4.181-5.2 1.789-2.138-3.372-2.631-7.951-1.188-11.039.633-1.353.547-1.357 2.386.1m24.404.1c1.422 2.331.379 7.342-2.185 10.5l-.975 1.2-3.247-3.228-3.248-3.229 1.908-2.122c3.722-4.14 6.455-5.241 7.747-3.121m60.32 1.373c.201 1.41-.994 3.253-5.138 7.927-7.813 8.81-15.669 17.203-16.221 17.329-1.182.271-.453-.902 2.895-4.652l5.959-6.677c6.253-7.009 9.781-11.141 9.781-11.457 0-1.203-2.108.85-10.768 10.487-6.549 7.289-9.864 10.698-10.136 10.426-.48-.48 1.658-3.248 7.549-9.775l7.831-8.681c5.217-5.789 7.898-7.39 8.248-4.927M80.3 161.596c.873.004.9.125.9 3.98 0 4.472.051 4.394-3.074 4.716l-2.253.233.26-2.762c.144-1.52.263-3.642.264-4.715l.003-1.953 1.5.248c.825.137 1.905.25 2.4.253m14.11 1.43c.214.564.39 1.814.39 2.776 0 2.939.689 2.375.988-.807l.28-2.995h7.506l-3.429 4.402c-3.906 5.015-3.996 5.098-4.343 4.004-.33-1.04-1.002-1.044-1.002-.006 0 1.111-.412 1.008-2.239-.555-1.833-1.569-6.677-4.128-8.505-4.494-.691-.138-1.256-.386-1.256-.551s-.112-.862-.25-1.55L82.3 162h11.72l.39 1.026m35.1 5.613l.109 6.438-4.272.262c-7.485.458-8.147.404-8.147-.659 0-1.304-.73-1.874-2.058-1.608-.628.125-1.16.071-1.182-.122s-.157-2.641-.3-5.442l-.26-5.091 6.8-.127 8-.109 1.2.019.11 6.439m18.626-4.939c-.554 2.954-2.185 8.818-2.84 10.209l-.701 1.491-6.637.109-6.637.11-.26-3.671c-.144-2.019-.261-4.993-.261-6.609V162.4h17.58l-.244 1.3m-103.463 4.514c3.611 3.942 3.517 3.778 2.752 4.802-.56.748-.754.617-4.284-2.897-3.653-3.637-3.689-3.692-2.958-4.5 1.053-1.164 1.04-1.171 4.49 2.595m67.462-.031c.519 6.142-1.396 8.05-7.762 7.736l-2.402-.119 4.714-5.272c5.584-6.244 5.136-6.052 5.45-2.345m-24.048.515c1.037.558 2.83 1.86 3.984 2.893l2.097 1.879-.984 1.245c-1.485 1.878-2.161 1.94-3.801.348-.785-.763-2.678-2.044-4.206-2.847-2.876-1.512-3.331-2.306-2.524-4.41.343-.893 2.891-.474 5.434.892m187.413 4.134c-.856.499-1.108 40.469-.258 40.994.809.5 5.343.656 6.458.222l1.1-.428v-18.311l1.983-1.854c3.249-3.04 6.53-2.447 7.627 1.378.214.749.39 5.282.39 10.074v8.713l1.1.428c1.445.562 6.095.203 6.544-.506.477-.752.429-16.727-.06-20.111-1.173-8.118-8.883-11.577-15.658-7.026l-1.726 1.16-.105-7.082c-.091-6.086-.2-7.153-.777-7.583-.806-.6-5.619-.65-6.618-.068m-191.09 1.394c1.823 4.795-.446 8.675-4.966 8.49-3.939-.161-4.131-1.256-.252-1.437 3.708-.174 4.134-.661 3.79-4.332-.341-3.64.482-5.208 1.428-2.721m-3.043-.383c.749.287.866 2.969.212 4.844-.41 1.179-3.696 2.182-4.837 1.477-.4-.247-.468-5.904-.075-6.297.333-.334 3.847-.352 4.7-.024m34.041 1.657c.282.673.363 3.482.736 25.488.151 8.909.098 10.044-.487 10.511-.806.643-4.581 2.893-4.857 2.895-1.295.009-.036-10.098 1.323-10.62.603-.231.452-2.174-.17-2.174-1.904 0-2.948-7.244-1.221-8.477.403-.288 1.07-1.044 1.484-1.68l.751-1.158-1.383-1.154-1.384-1.155V176.2l2-.668c2.593-.866 2.857-.868 3.208-.032m244.392-.4c-1.176.114-2.818.969-6.2 3.228L349 181.4l-.118 2.705c-.16 3.657.266 3.776 4.793 1.343l3.525-1.895v15.009c0 14.43.03 15.026.774 15.424.838.449 4.87.552 6.326.162l.9-.241V175.2h-1.367c-.752 0-1.607-.057-1.9-.127s-1.253-.058-2.133.027m21.681.255c-6.258 2.321-8.643 7.177-8.979 18.28-.473 15.639 3.572 21.621 14.259 21.084 9.823-.494 13.515-6.656 13.133-21.919-.256-10.207-1.737-14.069-6.374-16.615-2.556-1.403-9.249-1.864-12.039-.83M88.6 176.604l1.6 1.392-.944.802c-1.913 1.625-3.633.229-3.041-2.467.314-1.43.444-1.416 2.385.273m106.662-.391c-.854 1.084-.862 1.268-.862 19.253 0 20.794-.462 18.734 4.2 18.734 4.454 0 4.2.423 4.2-6.987V200.8l2.7-.007c10.504-.027 16.147-5.243 15.615-14.432-.477-8.25-4.398-10.749-17.353-11.06l-7.639-.184-.861 1.096m-139.264 3.016c2.279 2.565 2.456 2.888 1.89 3.454-.717.717-.706.724-5.008-3.072-3.076-2.715-3.078-2.898-.038-3.157.353-.029 1.773 1.219 3.156 2.775m-29.721-1.505c.607.983-5.604 5.914-6.424 5.1-.729-.723-.681-.804 1.979-3.324 2.652-2.513 3.724-2.942 4.445-1.776m94.473-.274l1.25.25v11.9h-4.4v-12.4h.95c.522 0 1.513.113 2.2.25m17.65 5.959v6.209l-7.5-.109-7.5-.109-.112-5.581c-.061-3.069-.022-5.814.088-6.1.153-.4 1.904-.519 7.611-.519h7.413v6.209m5.6-5.785c0 .628-3.04 6.849-3.8 7.776-.623.76-.645.701-.428-1.156.125-1.076.228-3.101.228-4.5V177.2h2c1.142 0 2 .182 2 .424m-39.715.626c.251.762-1.884 2.95-2.878 2.95-1.322 0-2.093-2.843-.907-3.345.863-.364 3.631-.076 3.785.395m4.515 5.567v5.37l-1.987 1.006c-1.092.554-2.082 1.007-2.2 1.007-.952 0-.141-10.317.887-11.272 3.058-2.838 3.3-2.553 3.3 3.889m-9.227-2.655c1.046 1.469 1.038 1.648-.18 4.051-1.259 2.486-1.378 2.477-2.743-.22l-1.117-2.206 1.133-1.365c1.405-1.69 1.859-1.731 2.907-.26m289.907 1.413c3.367 3.914 3.25 21.086-.165 24.294-2.5 2.347-5.97 1.664-7.346-1.445-1.772-4.007-1.862-16.7-.148-20.967 1.333-3.318 5.536-4.351 7.659-1.882m-179.587-.033c5.629 2.922 2.723 11.333-4.067 11.769l-3.026.194v-13.01l2.9.188c1.595.103 3.482.49 4.193.859m-121.289 2.279c.795.894.795.895-.008.474-.443-.231-1.163-.824-1.6-1.316-.795-.894-.795-.895.008-.474.443.231 1.163.824 1.6 1.316m14.596 3.291v4.112l-2.077 1.064c-2.275 1.166-2.723 1.125-2.723-.248 0-2.422 3.257-9.04 4.449-9.04.193 0 .351 1.85.351 4.112m-23.429-3.359c.25.405-1.245 2.447-1.792 2.447-.474 0-.931-1.831-.593-2.377.316-.512 2.08-.564 2.385-.07m15.964 1.893c1.019 2.078 1.055 2.31.479 3.1-1.761 2.416-2.51 3.783-2.755 5.033-.433 2.206-2.259 4.393-2.259 2.706 0-.284-.36-1.222-.8-2.085-1.214-2.381-.804-7.564.495-6.265.752.752 1.744.536 2.208-.482.34-.746.298-1.08-.197-1.576-.572-.572-.569-.722.041-1.653.996-1.519 1.567-1.268 2.788 1.222m140.897-1.848c-.643.203-1.948 1.134-2.9 2.069l-1.732 1.7v-1.235c0-1.8-.73-2.188-3.864-2.051l-2.736.119-.105 14.108-.105 14.108 1.031.392c1.323.503 4.233.504 5.553.002l1.026-.39v-16.889l1.21-1.685c1.733-2.413 3.057-3.08 5.862-2.952l2.328.106.115-3.238c.085-2.388-.031-3.36-.44-3.7-.77-.639-3.835-.91-5.243-.464m15.495.177c-5.305 1.209-6.927 2.432-6.927 5.225 0 3.26.806 3.553 4.869 1.77 6.076-2.667 9.842-1.636 10.496 2.873l.267 1.844-4.516.211c-8.126.38-11.844 2.747-12.564 7.999-1.093 7.972 8.815 12.986 16.011 8.102 1.713-1.162 1.837-1.191 1.837-.428 0 1.615 3.929 2.537 6.026 1.415 1.053-.563 1.188-19.646.164-23.094-1.544-5.201-8.039-7.654-15.663-5.917m62 0c-5.821 1.327-7.324 2.73-6.666 6.222.427 2.262 1.062 2.416 4.184 1.015 6.251-2.805 10.503-1.86 11.013 2.45l.239 2.02-4.348.228c-9.498.497-12.973 3.357-12.473 10.268.503 6.959 9.56 10.094 16.205 5.609l1.719-1.16v1.14c0 1.258.718 1.622 3.2 1.622.77 0 1.805-.108 2.3-.241l.9-.241-.002-10.854c-.003-12.005-.17-13.155-2.243-15.45-2.413-2.671-8.684-3.846-14.028-2.628m-230.704 1.192c.427.312.636.707.465.878s-.705-.084-1.188-.567c-.978-.979-.482-1.192.723-.311m-48.114.408c-3.27.792-6.876 2.778-9.688 5.335l-2.579 2.345.887 1.246c5.334 7.49 16.216 10.427 26.402 7.125 6.361-2.063 13.36-2.14 16.131-.178 3.469 2.457 6.42-3.141 5.178-9.825-.939-5.057-2.655-6.53-4.986-4.281-2.685 2.589-6.242 2.775-12.134.633-7.953-2.89-14.047-3.651-19.211-2.4m52.165.295c1.569 1.473 1.164 5.395-.522 5.058-.758-.151-.82-.568-.493-3.304.108-.899-.071-1.285-.757-1.636-.493-.253-.778-.578-.633-.724.506-.505 1.485-.259 2.405.606m-43.075.354c2.168.271 4.885 1.006 7.589 2.052 3.611 1.397 4.773 1.658 8.143 1.825l3.932.195-.085 3.452c-.047 1.899.042 3.902.198 4.452.273.962.26.971-.346.224-.412-.508-.63-1.582-.63-3.1 0-1.799-.136-2.324-.6-2.324-.472 0-.6.556-.6 2.6 0 2.524-.03 2.6-1.026 2.6-2.08 0-2.574-.616-2.574-3.214 0-2.215-.39-2.972-1.013-1.965-.143.231-.272 1.221-.287 2.2-.021 1.405-.171 1.779-.714 1.779-1.213 0-1.787-1.078-1.179-2.213.627-1.171.152-1.892-.584-.886-.875 1.197-1.781.78-3.233-1.49-1.219-1.906-2.382-3.011-3.169-3.011-.127 0 .031.629.352 1.397.545 1.305.522 1.506-.347 3.036l-.931 1.639-1.146-1.504c-.631-.827-1.093-1.821-1.027-2.21.129-.763-1.283-1.753-1.93-1.353-.216.133-.392.56-.392.949 0 .65-.738 1.482-2.477 2.795-.593.447-.784.297-1.549-1.219-1.079-2.139-.934-1.997-1.727-1.693-.597.23-.561.439.342 1.981 1.456 2.484 1.054 4.127-1.019 4.169-1.307.027-3.257-3.025-2.194-3.433 1.547-.594.895-1.241-1.219-1.211-1.784.026-2.133.142-1.937.644.46 1.178.371 1.35-.895 1.731-1.143.344-1.379.264-2.266-.767-.545-.633-1.125-1.017-1.289-.853s.032.662.436 1.109c1.384 1.529.069 1.715-1.401.198l-1.353-1.396.974-1.039c2.7-2.879 8.209-5.65 12.269-6.17 3.39-.434 3.251-.434 6.904.024m25.121 3.81c.118 1.613.105 1.631-1.1 1.454-.955-.14-1.22-.379-1.22-1.101 0-2.774 2.119-3.097 2.32-.353m10.43-.495c.34.411.266.704-.312 1.226-.879.796-1.433.279-1.037-.969.295-.929.723-1.011 1.349-.257m4.049 1.063c-.498.93-1.799.933-1.799.004 0-.666 1.934-1.773 2.126-1.216.069.201-.078.746-.327 1.212m26.801-.885c0 .851-11.596 7.816-12.14 7.291-.842-.812.507-2.019 5.44-4.871 5.547-3.206 6.7-3.622 6.7-2.42m19.2 4.707v4.224l-2.058 2.176-2.058 2.176H118v-12.8h12v4.224m5.525-2.377a50.93 50.93 0 0 1-2.608 3.3l-1.284 1.453-.016-3.3-.017-3.3h5.25l-1.325 1.847m-38.801.85c-.087 1.047-.335 1.536-.825 1.629-1.038.197-1.273-.939-.434-2.092 1.03-1.414 1.403-1.277 1.259.463M81.8 193.8c0 .537-.311.844-.946.934-1.288.182-1.937-.511-1.252-1.336.73-.88 2.198-.611 2.198.402m5.094-.351c1.352-.852 2.584 1.362 3.793 6.812.222.997-1.532 2.879-3.829 4.108-2.017 1.079-2.323.703-2.62-3.231-.152-2.014-.46-4.004-.684-4.423-.952-1.78.423-4.284 1.842-3.354.598.391.982.414 1.498.088m21.506 4.543v3.192l-1.584.808c-.871.444-1.681.808-1.8.808s-.214-1.395-.212-3.1l.004-3.1 1.496-.882c2.11-1.245 2.096-1.26 2.096 2.274m-63.326-1.922c1.17 1.099 1.163 1.568-.04 2.698-1.904 1.789-4.529-.261-2.993-2.338 1.076-1.455 1.779-1.539 3.033-.36M51.6 196c.973.973 1.018 1.896.138 2.869-.811.895-2.538.981-2.538.126 0-.333-.225-.971-.5-1.418-.952-1.547 1.563-2.914 2.9-1.577m27.784-.026c.127.205.813.279 1.524.163 1.578-.256 2.445 2.41 2.037 6.263-.247 2.339 1.061 5.55 3.26 8 3.031 3.378 2.629 3.874-3.305 4.08-6.182.215-6.367.176-6.648-1.417-.181-1.03-.44-16.119-.294-17.163.061-.435 3.152-.369 3.426.074m16.64 1.626c.908 1.282 1.463 5.6.72 5.6-.842 0-3.944-3.299-3.944-4.194 0-2.332 1.962-3.187 3.224-1.406m-62.435.479c1.279 2.101-.119 3.078-2.135 1.492-1.111-.874-1.397-2.166-.554-2.506 1.183-.477 1.961-.184 2.689 1.014m69.611 2.638v3.116l-2.2 1.079-2.2 1.079v-5.94l2.1-1.181 2.2-1.226c.055-.024.1 1.359.1 3.073m-61.584-.9c1.918 2.041-.701 3.776-3.024 2.004-1.597-1.218-1.68-2.154-.255-2.865 1.181-.588 2.159-.331 3.279.861m27.923-.717c.38.726-.066 2.505-.626 2.494-.979-.019-2.031-1.957-1.515-2.79.401-.65 1.742-.465 2.141.296m-21.314.682c.858 1.31.454 1.818-1.449 1.818-1.802 0-1.992-.505-.706-1.874 1.095-1.166 1.359-1.159 2.155.056m6.349-.14c-.279.452-1.374.471-1.374.025 0-.563.45-.823 1.037-.598.307.118.459.376.337.573m-18.358 1.585c.369.595-.058.919-.824.625-.354-.135-.531-.428-.394-.649.324-.525.886-.514 1.218.024m58.008 1.771c.726.769 1.696 1.928 2.157 2.575l.838 1.177-1.71 1.964c-1.957 2.25-4.773 4.209-5.772 4.017-.579-.111-1.39-1.239-3.724-5.175-.305-.516.038-.934 1.72-2.092 1.156-.796 2.622-1.991 3.259-2.656 1.458-1.522 1.627-1.512 3.232.19m16.976.146c0 .75-2.119 2.085-6.659 4.196-5.541 2.577-5.741 2.621-5.741 1.263 0-.881.642-1.32 5.5-3.757 5.251-2.634 6.9-3.041 6.9-1.702m149.6.825c0 4.252-6.948 7.091-8.815 3.602-1.752-3.273.622-5.499 5.915-5.546l2.9-.025v1.969m62-.016c0 4.445-6.333 6.963-8.643 3.438-1.885-2.878.789-5.391 5.737-5.391h2.906v1.953M92.809 205.2c-.009.33-.457 1.545-.995 2.7l-.977 2.1h1.105c1.842 0 2.568-.806 2.251-2.498-.303-1.612-1.355-3.362-1.384-2.302m31.591.201c0 .228-4.611 3.67-5.691 4.248-.642.343-.709.152-.709-2.035V205.2h3.2c1.76 0 3.2.09 3.2.201m-15.2 5.199c0 4.21.135 4.045-2.9 3.543l-1.5-.248.001-2.447.001-2.448 1.899-1.052c1.045-.579 2.034-1.074 2.199-1.1s.3 1.662.3 3.752m-6.147 3.681c-.105.104-1.15.038-2.322-.148-3.42-.542-3.118-2.348.627-3.746l1.642-.614.121 2.159c.067 1.187.036 2.244-.068 2.349m-5.633-2.916c.484 2.581.058 3.035-2.847 3.035-2.772 0-3.145-.352-1.572-1.481a40.17 40.17 0 0 0 2.272-1.819c1.631-1.411 1.837-1.386 2.147.265m10.58 4.429c0 1.988-18.382 7.22-26.988 7.681-5.287.284-5.055.48-4.738-4.006l.244-3.455 9.841-.114 15.741-.207c3.245-.051 5.9-.006 5.9.101"/></svg>