<svg viewBox="0 0 400 264.041" xmlns="http://www.w3.org/2000/svg" xmlns:xlink="http://www.w3.org/1999/xlink"><clipPath id="a"><path d="m641.864 845.892h-228.006v-240.976h228.006z"/></clipPath><clipPath id="b"><path clip-rule="evenodd" d="m413.858 851.891h244.514v-98.021h-244.514z"/></clipPath><clipPath id="c"><path d="m0 898.583h651.968v-898.582h-651.968z"/></clipPath><clipPath id="d"><path d="m0 898.59h651.96v-898.56h-651.96z"/></clipPath><g clip-path="url(#a)" transform="matrix(3.77433 0 0 -3.77433 -1792.321 3192.677)"><g clip-path="url(#b)"><g clip-path="url(#c)"><g clip-path="url(#d)"><path d="m487.268 788.513c-1.282 0-2.646.245-4.146.736l-.109 3.737h-1.281l.136-4.964c1.854-.927 3.736-1.39 5.781-1.39 4.773 0 7.692 2.59 7.692 6.354 0 1.745-.764 3.272-2.128 4.227-1.391.982-2.945 1.391-4.391 1.909-2.045.736-3.027 1.309-3.027 2.836 0 1.582 1.118 2.564 3.137 2.564 1.254 0 2.59-.355 4.035-1.01l.055-3.436h1.255l-.055 4.691c-1.963 1.146-3.818 1.719-5.727 1.719-4.063 0-6.709-2.428-6.709-5.891 0-2.673 1.527-4.173 4.663-5.373 2.837-1.091 4.692-1.527 4.692-3.627 0-1.964-1.392-3.082-3.873-3.082m25.635 11.781v5.81h-15.873v-.9h3.355v-17.291h-3.082v-.9h16.2v5.973h-1.255v-3.6l-7.418-.245.082 7.063h6.136v1.854h-5.972l.081 6 6.519-.245v-3.519zm2.126 5.81v-.9h3.082l-.218-17.291h-2.81v-.9h8.21v.9h-3.11v15.818l10.8-17.099h3.028l.191 18.572h3.081v.9h-8.372v-.9h3l.217-12.327-7.963 13.227zm34.771 6.027-6-3.9 1.118-.9 8.045 3.164zm-1.528-5.645h-3l-6.926-18.573h-2.401v-.9h7.582v.9h-3.054l1.664 4.882h6.163l1.691-4.882h-3.354v-.9h10.472v.9h-1.828zm-5.481-11.837 2.564 7.691 2.563-7.691zm30.517 9.246.054-3.955h1.227l-.054 6.164h-17.455l-.054-6.164h1.227l.055 3.955h5.1v-15.982h-3.083v-.9h10.964v.9h-3.273l.164 15.982zm-91.101-26.272h.39c.967 0 1.502.412 1.502 1.08 0 .722-.566 1.048-1.727 1.048h-1.518v-.166h.658v-3.41h-.604v-.165h2.079v.165h-.796zm.042 1.85h.209c.636 0 .893-.203.893-.786 0-.609-.321-.823-1.123-.829zm3.896.352h-.475l-1.46-3.65h-.47v-.165h1.486v.165h-.615l.443 1.182h1.241l.443-1.182h-.646v-.165h1.871v.165h-.417zm-.973-2.148.529 1.443.519-1.443zm5.193.251c.562.15.845.455.845.909 0 .657-.54.914-1.684.914h-1.55v-.166h.657v-3.41h-.603v-.165h1.929v.165h-.647l.049 1.555.368.022 1.048-1.742h1.036v.16h-.31zm-1.047.059.053 1.486h.209c.619 0 .892-.203.892-.711 0-.513-.379-.77-1.154-.775m8.25 1.838h-.476l-1.458-3.65h-.432v.983h-.236v-.743l-1.582-.037.042 3.207h.733v.166h-2.133v-.166h.657v-3.41h-.603v-.165h4.569v.165h-.615l.444 1.182h1.239l.445-1.182h-.648v-.165h1.871v.165h-.416zm-.973-2.148.529 1.443.519-1.443zm7.434 1.908h.641v.166h-1.629l-.958-2.731-1 2.731h-1.603v-.166h.626l-.075-3.41h-.572v-.165h1.609v.165h-.642l.038 3.276 1.277-3.404h.321l1.251 3.404.005-3.276h-.61v-.165h1.973v.165h-.641zm3.852-3.17-1.567-.037.017 1.459h1.235v.311h-1.214l.016 1.245 1.4-.038v-.689h.231v1.085h-3.02v-.166h.657v-3.41h-.604v-.165h3.084v1.111h-.235zm3.42 3.17h.615l.042-2.656-1.763 2.822h-1.615v-.166h.631l-.043-3.41h-.577v-.165h1.609v.165h-.626v3.202l2.207-3.442h.498l.037 3.65h.604v.166h-1.619zm1.896.166-.011-1.133h.235l.01.753h1.102v-3.196h-.631v-.165h2.021v.165h-.684l.037 3.196h1.096l.01-.753h.23l-.011 1.133zm6.214-.166h.616l-.011-2.363c-.006-.652-.321-.989-.931-.989-.603 0-.908.295-.908.883v.016l.022 2.453h.587v.166h-1.951v-.166h.605l.021-2.443c.005-.807.491-1.207 1.453-1.207.947 0 1.427.41 1.444 1.234l.048 2.416h.571v.166h-1.566zm5.36-.091a1.97 1.97 0 0 0 .791-.166l.017-.662h.24l-.022.887a2.46 2.46 0 0 1 -1.159.272c-.449 0-.861-.117-1.219-.336a1.899 1.899 0 0 1 -.909-1.609c0-.818.454-1.491 1.197-1.785a2.23 2.23 0 0 1 .834-.16c.465 0 .882.122 1.203.342l.016.849h-.236l-.015-.721a1.484 1.484 0 0 0 -.669-.166c-.865 0-1.518.684-1.518 1.684 0 .988.535 1.571 1.449 1.571m-.711 1.224h-.721l.935-.834 1.315.813-.305.096-.774-.497zm5.157-4.303-1.566-.037.016 1.459h1.235v.311h-1.213l.016 1.245 1.4-.038v-.689h.229v1.085h-3.019v-.166h.657v-3.41h-.604v-.165h3.084v1.111h-.235zm2.223 1.845c-.514.198-.781.326-.781.673 0 .321.262.556.674.556a1.86 1.86 0 0 0 .828-.198l.011-.673h.235l-.01.871c-.332.214-.718.33-1.113.336-.742 0-1.261-.464-1.261-1.079 0-.529.31-.818.946-1.08.588-.245.946-.369.946-.781 0-.379-.32-.635-.834-.635a2.59 2.59 0 0 0 -.812.144l-.021.732h-.241l.027-.918a2.344 2.344 0 0 1 1.122-.273c.86 0 1.411.496 1.411 1.181 0 .593-.39.86-1.127 1.144m3.483-.091 1.438 1.416h.487v.166h-1.647v-.166h.648l-1.588-1.662.042 1.662h.572v.166h-1.95v-.166h.641v-3.41h-.62v-.165h1.908v.165h-.593l.032 1.667 1.587-1.832h1.143v.165h-.341zm4.372 2.731-1.278-.722.193-.176 1.565.593zm.85-4.485-1.567-.037.016 1.459h1.235v.311h-1.213l.015 1.245 1.401-.038v-.689h.23v1.085h-3.02v-.166h.657v-3.41h-.603v-.165h3.083v1.111h-.234zm4.209 1.513c.562.15.845.455.845.909 0 .657-.539.914-1.683.914h-1.55v-.166h.657v-3.41h-.604v-.165h1.93v.165h-.647l.048 1.555.368.022 1.048-1.742h1.037v.16h-.31zm-1.047.059.053 1.486h.209c.62 0 .893-.203.893-.711 0-.513-.38-.77-1.155-.775m5.497-1.572-1.567-.037.016 1.459h1.235v.311h-1.213l.016 1.245 1.4-.038v-.689h.23v1.085h-3.02v-.166h.658v-3.41h-.604v-.165h3.083v1.111h-.234zm2.217 3.336h-1.518v-.166h.657v-3.41h-.603v-.165h2.079v.165h-.797l.016 1.448h.39c.968 0 1.502.412 1.502 1.08 0 .722-.567 1.048-1.726 1.048m-.145-1.893.021 1.615h.209c.636 0 .893-.203.893-.786 0-.609-.321-.823-1.123-.829m4.599 1.727h.614l-.011-2.363c-.005-.652-.32-.989-.929-.989s-.909.295-.909.883v.016l.021 2.453h.588v.166h-1.95v-.166h.603l.021-2.443c.006-.807.492-1.207 1.455-1.207.945 0 1.426.41 1.443 1.234l.048 2.416h.572v.166h-1.566zm4.284-1.459c.492.144.754.444.754.829 0 .534-.497.796-1.497.796h-1.689v-.166h.658v-3.41h-.604v-.165h1.818c1.031 0 1.624.448 1.624 1.1 0 .572-.385.952-1.064 1.016m-1.042 1.368h.171c.614 0 .893-.198.893-.7 0-.454-.353-.705-.999-.705h-.081zm.219-3.222h-.272l.016 1.597.283.011c.759 0 1.117-.246 1.117-.791 0-.609-.347-.817-1.144-.817m5.152.143-1.582-.037.043 3.207h.732v.166h-2.133v-.166h.658v-3.41h-.604v-.165h3.121v1.148h-.235zm.495 3.17h.658v-3.41h-.604v-.165h1.951v.165h-.641l.038 3.41h.657v.166h-2.059zm4.356-1.416 1.438 1.416h.486v.166h-1.646v-.166h.648l-1.588-1.662.042 1.662h.572v.166h-1.951v-.166h.642v-3.41h-.62v-.165h1.909v.165h-.594l.032 1.667 1.588-1.832h1.143v.165h-.342zm4.616 1.416h.621l-.947-1.668-1.058 1.668h.631v.166h-1.893v-.166h.38l1.385-2.031v-1.379h-.653v-.165h2.026v.165h-.662l.005 1.448 1.219 1.962h.458v.166h-1.512zm-26.774 56.817c.177.092.552.073.552.073l-.552.127c.22.171.525.484.58.597a6.64 6.64 0 0 1 .141.339c-.159-.316-.903-.78-1.274-1.162-.275-.285-.514-.717-.559-1.516l-.003-.571s.082.752.199 1.103c.2.599.528.812.916 1.01m2.616 5.918.001.019-.075.005zm13.243-12.245-.407-.204c-.098-.038-.237-.062-.277-.178l.12.011.063-.005c.016.001.109.001.116.013-.024-.04-.067-.074-.099-.108l-.116-.119-.259-.263a.9.9 0 0 0 -.117-.105c.044-.01.142.044.181.063a2.7 2.7 0 0 1 .432.261c.189.142.372.302.519.491l.109.155c.01.017.081.16.094.159l-.037.003c-.078.004-.249-.135-.322-.174m-14.879 7.395.016.036s-.008-.013-.016-.036m-1.045-1.811c.436.223.914.201 1.157.587s.071.764-.058.943c-.09.125-.072.229-.054.281-.034-.074-.104-.253-.09-.387.018-.172.113-.524-.206-.845s-.856-.101-1.32-.777c-.78-1.137-.121-3.784-.121-3.784-.368 2.873.116 3.688.692 3.982m33.981-12.429-.037.022.187.669-.035.043-.115-.033-.017.041.077.375-.018.002c-.101-.185-.308-.283-.457-.413-.203-.177-.392-.416-.634-.541-.54-.282-1.099-.435-1.484-.891a3.353 3.353 0 0 1 -.696-1.318c-.209-.807-.035-1.664-.677-2.04-2.446-1.433-3.855 2.092-4.585 3.889-1.222 3.01-1.792 7.959-5.048 9.124-.551.197-3.266 1.458-7.012.146-1.83-.641-4.534-.632-6.314.303-.143.074-.458.264-.526.413-.105.23-.036.316-.259.436l.002.04v.02c.29.053.625-.106.821.15.349.456.88 1.406.697 1.896-.142.38-1.144 1.607-1.455 1.786-.134.243.116.4.075.676-.066.449-.402.744-.488 1.111.213.55.029 1.61-.175 1.992-.413.78-1.909 1.13-2.89 1.377l-1.148.071c-.428-.191-1.085-.194-1.531-.367-.778-.302-2.659-1.334-3.151-1.969-.294-.378-.3-.842-.489-1.331-.184-.479-.683-.806-.879-1.334-.122-.329-.223-.786-.18-1.21l.043-.623c-.099-.465-.32-.908-.324-1.421l-.032-.939c-.103-.441-.355-.987-.274-1.564.066-.469.167-.968.264-1.397 0 0 .51-1.405.51-1.606s-.292-.252-.292-.252l.003-.019c-1.133-.622-2.156-.235-3.219-.202-1.035.033-1.445-.709-1.961-1.124-.18-.145-.334-.248-.469-.339a11.502 11.502 0 0 1 1.656 2.544 11.43 11.43 0 0 1 .465 8.794 11.44 11.44 0 0 1 -14.686 7.011 11.434 11.434 0 0 1 -6.546-5.891 11.43 11.43 0 0 1 -.465-8.794 11.53 11.53 0 0 1 1.874-3.372 3.37 3.37 0 0 1 -.525.266c-.443.171-.915.067-1.373.182-.617.155-.676.387-1.31.463-1.014.122-2.515.001-3.339-.257.038.124.16.144.243.241.152.18 1.513 1.34 1.69 1.701l.009.019c.131.176.279.592.343 1.216.084.845-.035 1.155-.155 1.363s-.35.396-.368.568l-.005-.021c-.162.335-.14.872.142 1.269.219.309.323.551.311.786.014.131-.015.407-.097.637.005.128.015.258.001.382-.023.225-.143.426-.219.628-.135.358-.13.974-.547 1.087-.038.257-.218.652-.495.731.064.147.278.663.278 1.066 0 .474-.407 1.459-.72 1.441s-.36-.21-.548-.316c-.101-.057-.1-.095-.163-.111-.14.291-.093.502-.592.782-.541.305-1.233.488-1.864.609s-.392.336-.663.427-.811.122-1.202-.091-.483-.296-.933-.336c-1.052-.091-1.296-.761-1.864-1.157-.79-.551-1.501-.62-1.982-1.991a2.492 2.492 0 0 1 -.135-.494c-.096-.746.002-1.007-.145-1.33-.352-.78-.837-.9-1.156-1.65-.175-.415-.205-1.775-.301-2.035 0 0-.045-.179-.228-.302l-.017-.011c-.264-.138-.656-.18-1.663-.305-1.081-.135-2.036-.365-3.439.038s-2.439.499-2.969.48c-.176-.006-.65-.029-1.233-.118l.625.132-.671-.139a8.575 8.575 0 0 1 -1.236-.283 5.39 5.39 0 0 1 -1.316-.543c-1.555-.92-2.59-2.49-3.434-4.057-.253-.47-.49-.948-.72-1.43l-.88-1.878c-.242-.522-1.115-2.955-2.016-4.539-.644-.91-1.764-1.687-2.992-.858-.609.413-.468 1.184-.677 1.958a3.19 3.19 0 0 1 -.695 1.266c-.386.437-.945.584-1.485.854-.241.121-.43.351-.633.52-.15.125-.356.218-.457.396l-.018-.002.076-.36-.016-.039-.116.031a1.25 1.25 0 0 0 -.035-.04l.187-.642-.036-.021-.154.048.437-1.05.085-.821c.137-.623.176-1.109.467-1.567.47-.741 1.054-.616 1.72-1.032l.124-.185a2.72 2.72 0 0 1 .87-.679c1.872-.891 3.209-.246 4.424.913a2.25 2.25 0 0 1 .264.302c.346.414.888 1.083 1.261 1.665l.046-.667-.009-.006c.063-.537.069-1.071.089-1.609.023-.641-.067-1.268-.067-1.905v-.053a.88.88 0 0 0 .157.053c.031 0 0-.128 0-.244s.01-.435.01-.499.063-.032.073-.085.21-.468.556-.542c.297-.064.618-.042.985-.042l1.299.01.859-.01c.231 0 .471.032.577.042s.219-.01.345-.01c.014 0 .026.002.04.007.069-.005.097-.015.16-.007.084.01.094-.011.146.095s.084.192.084.425-.073.148-.136.69-.556.87-.692 1.008-.565.34-.702.372-.357-.017-.481-.032c-.262-.031-.545.658-.451.945.25.762-.011 1.38.629 1.954.143.129.262.244.324.222s-.042-.35-.042-.35c-.147-.714 0-1.552.449-2.131.287-.37.636-.687.913-1.065.253-.342.365-.933.509-1.329.092-.255.159-.562.366-.747l-.004-.014.056-.038s.149-.279 1.87-.228c.635.02.678.064 1.034.045 0 0 .243-.076.392-.114.138-.035.374.263.801 0a.095.095 0 0 1 .044.007c.094.038.431.22.683.922.075.211-.044.622-.087.833-.07.345-.331.41-.64.532a2.942 2.942 0 0 1 -.915.209c-.719.027-1.016.6-1.129 1.258-.061.382-.194 1.239-.092 1.899s.326 1.053.418 1.228.424.642.591.929c.203.351.59 1.002.651 1.27 0 0 .336-.011 1.161-.372.64-.28.957-.661 1.255-.801.547-.343 1.214-.561 1.812-.703.697-.164 1.414-.21 2.127-.218.338-.004.923-.007 1.282.031a4.92 4.92 0 0 0 -.218-1.884c-.408-1.286-1.233-3.724.09-4.797.341-.276 1.665.103 2.266-.023.657-.138 1.427-.023 1.427-.023l.363-.023.753.067.023.01c.061.101.192.851.14 1.169a1.41 1.41 0 0 1 -.558.86c-.266.167-.696.077-1.088.205 0 0-.304.052-.393.539s.095 1.053.291 1.411c.462.846 1.254 1.411 1.646 2.373.089.218.145.464.228.646l.024.022.19.034a.89.89 0 0 0 .379-.282s.467-.029.693.204c.671.692 3.202 1.26 3.202 1.26.512.114 2.748 1.122 3.067.911 1.335-.879 2.78-.552 2.972-.601s.609-.202.817-.202c.787 0 .41.108 1.243.124.211.005.671.068.705.105l.006-.01s.294.791.12 1.461a11.551 11.551 0 0 1 2.563-1.673 11.433 11.433 0 0 1 8.795-.464 11.47 11.47 0 0 1 4.235 2.641 2.81 2.81 0 0 1 -.137-.406c-.2-.771-.961-1.285-.125-2.208.101-.112.104-.214.251-.261.185-.037.211.154.357.162l.49.043.26.166c.421.057.692.056.999.333.412.373.738 1.056 1.592 1.042 1.184-.02 1.69-.568 2.638-.952l1.357-.355.95-.445c.328-.112 1.522-.009 2.087.153l.359.173c.326-.224.829-.448.951-.667.264-.471.044-.696.477-2.192.178-.615.515-1.124.58-1.836.03-.326-.142-.49-.262-.665-.156-.224-.096-.154-.353-.249-.964-.354-1.399.21-2.094-.632-.101-.124-.272-.359-.224-.647l.237-.514c.086-.287.118-.569.318-.741.309-.265.841-.002 1.164-.131.822-.329 1.064-.286 2.065-.046.571.137 1.186.024 1.53.497.534.74.216 2.024.392 3.059.159.933.383 2.157.661 3.033.06.191-.053.388.003.554.062.188 2.835-.37 3.097-.385 1.033-.056 2.101.052 3.06.478.043.018.331.261.363.211.108-.171.051-.382.097-.571.121-.511.57-.671.981-.914.746-.44 1.308-1.41 1.029-2.337-.062-.208-.226-.681-.378-.803-.411-.327-.733-.263-1.273-.502-.313-.136-.342-.475-.567-.665-.169-.143-.411-.229-.506-.431-.3-.63-.056-1.389.738-1.063.163-.101.256-.287.496-.287l.974.241.305-.16c.58-.13 1.719.444 1.921.828l.209.39c.145.413.415.928.614 1.284.33.59.726 1.048.885 1.818.182.878-.509 2.093.153 2.766.29.295 3.742-1.817 2.232-3.942-.478-.672-1.305.228-2.089-.588-.181-.189-.551-.557-.648-.821l.014-.421c.004-.638-.108-.85.553-.954l.145-.449c.257-.336 1.165-.048 1.51-.013l.504-.111c1.339.224 1.926.489 2.329 1.323.592 1.219.691 1.491 1.049 2.586.246.751.716.963.563 1.826-.158.894-.893 1.427-1.303 2.063-.286.442-.403.532-.485 1.187-.027.212-.089.577-.011.841l.174.41.039.017c.222.104 1.251-2.761 1.381-3.048.301-.665.626-1.281.949-1.933 1.089-2.195 3.229-3.726 5.671-2.589a2.6 2.6 0 0 1 .87.707l.123.193c.666.434 1.25.303 1.72 1.076.291.476.33.983.467 1.632l.085.856.437 1.094-.153-.051m-26.491 11.757-.005-.1.018-.001c.022.045.072.056.094.102.019.012.028.046.029.071.092-.397-.357-.947-.442-1.174-.153.182-.106 1.158.242 1.136.01.053.054.113.064.166-.007.007-.003.027-.009.033-.096-.027-.143-.086-.212-.139l-.036.042a.91.91 0 0 0 .242.265l.075-.004c.094-.164.025-.224-.06-.397m-.379 1.375c.089-.199.345-.499.435-.698l-.002-.06c-.518-.093-.626.5-1.151.391-.145-.062-.122-.201-.296-.222a.911.911 0 0 1 .318-.4c-.069.171-.181.285-.084.526.853.141 1.033-1.175.424-1.588-.984-.664-1.73.155-2.563.371a.84.84 0 0 1 -.775-.215c-.168-.16-.351-.473-.272-.723.144-.451.977-.282 1.292-.27.083.003.168.004.25-.002.312-.02.616-.117.914-.213l.224-.072c.195-.061.387.025.461.152l.131-.028c.086-.222-.036-.252-.079-.415l.051-.443a1.106 1.106 0 0 0 -.752-.975c-.014-.013-.134-.025-.148-.038-.005.014.097.027.092.041.158.252.32.52.368.858l-.34-.679-.518-.49-.117-.092c-.11.282-.238.529-.433.727.026.431.148.67.205 1.008l-.019.001-.189-.349-.038-.017c-.035.125-.047.247-.111.331-.038.093-.201.153-.266.157a.13.13 0 0 1 -.081-.025l-.003-.001-.005-.005c-.007-.004-.012-.01-.018-.015l-.195-.167c.018.015-.029.195-.04.216-.069-.063-.107-.24-.201-.262 0 0-.08.087-.127.146-.053.065-.186.119-.244.18a.63.63 0 0 0 -.131.191c-.033.087-.009.191-.039.27.045-.12.076-.274.181-.346-.005.022.037.071.027.096.092-.109.323-.162.512-.16.22.002.534.09.749.131.514.097.953-.22 1.455-.226-.253.138-.557.207-.832.275-.3.073-.712.071-1.017.052-.244-.014-.476-.027-.704.051-.152.031-.372.093-.397.617-.016.314-.166.629-.356.864-.077.095-.165.18-.23.286a1.38 1.38 0 0 0 -.163.431c-.046-.167.097-.468.165-.571.077-.117.17-.258.214-.383-.024-.021-.302.285-.321.308-.148.168-.291.452-.374.721a1.26 1.26 0 0 1 .077-.402c.143-.348.408-.554.616-.849.17-.241.277-.535.263-.839l.002.039c.007-.086.011-.175.01-.261.001.075-.064.196-.085.27-.061.203-.103.412-.214.593-.324.527-1.101.901-.937 1.647.054.245.204.443.353.631.155.194.32.388.4.632.058.176-.013.392.011.54.074.47.362.842.816.77a.148.148 0 0 1 .001.021c-.072.098-.194.121-.371.122l-.016.041c.126.07.287.09.495.07l.002.04c-.239.122-.513.442-.855.253h-.02l-.015.041c.275.266.789.148 1.08.075l.02.018c-.115.232-.55.384-.852.313l-.053.063c.414.18.838-.059 1.237-.176l.001.02c-.105.175-.276.379-.466.469l-.052.083.247.025c.654-.038.724-.373 1.079-.646l-.177.551.039.018.372-.443a.901.901 0 0 1 -.045.223l.001.019.039.018c.262-.18 1.159-1.437 1.017-1.804-.068-.133-.209-.177-.37-.197l-.037.022c.039.132.126.211.038.338-.027.058-.025.049-.071.085l-.019.001.023-.262c-.25-.228-.511-.322-.815-.07l-.017.061c.101.08.157.164.224.286l-.035.043-.018.041c-.122-.321-1.162-.754-1.568-.705l-.001-.02c.089-.107.395-.071.563-.074l.017-.041c-.433-.219-.362-.556-.625-.723l-.022-.058c.012.034.165.088.201.104.068.032.115.052.189.023.13-.051-.014-.149.057-.235.056.118.226.063.305.036l.154-.054a1.15 1.15 0 0 1 .261-.053c.179-.012.338.027.448.189-.002-.001.133.191.141.322l.305.062.018-.021a1.77 1.77 0 0 0 -.123-.17 2.28 2.28 0 0 0 -.131-.163 1.243 1.243 0 0 0 -.203-.194.68.68 0 0 0 -.117-.067c-.04-.017-.083-.025-.121-.046s-.061-.055-.082-.093l.69.353c.061.032.12.069.184.092.017.007.009-.051.006-.057-.012-.029-.035-.056-.05-.084-.035-.056-.119-.109-.154-.166.178.013.405-.006.582.014.039.004.2.018.136-.044-.085-.08-.175-.163-.236-.266l-.033-.062c-.006-.016-.014-.057-.026-.068.098.09.17.208.275.288.06.045.238.062.309.08l.266.068a.437.437 0 0 1 .038.017c-.019-.009-.079.014-.101.017l-.098.015c-.061.008-.23.014-.29.019-.12.011-.242.016-.363.02-.03.001-.186-.019-.172.043.003.013.028.025.038.032.154.111.311.205.501.218l.002.019c-.209.061-.454.009-.68.002-.006.014-.011.028-.018.041a.755.755 0 0 0 .486.23v.02h-.641l-.018.021c.051.417.493.548.826.61l.092-.046.049-.143c-.07-.093-.107-.159-.236-.186.56-.278.875-.427 1.21-.897m-1.421-2.363c.038.009.125-.008.162-.015.058-.011.054-.061.049-.1a.31.31 0 0 0 -.052-.124c-.02-.035-.147-.246-.183-.158-.024.059-.004.15-.002.223.002.044-.019.162.026.174m-.223-.566c-.017-.045-.097-.047-.141-.038-.094.021-.1.079-.057.155.037.067.055.083.081.142.012.031.031.091.067.1l.008.002c.082-.005.067-.295.042-.361m-.294.217c-.088-.057-.223.041-.301.077-.021.01-.042.019-.061.03-.195.097-.501.137-.716.123-.103-.007-.2-.038-.299-.061-.05-.011-.1-.021-.152-.025-.026-.001-.093-.01-.113.013-.032.037.02.2.042.212.062.038.13.066.201.084.127.037.346.064.472.013.182-.076.465-.225.648-.299.069-.027.255-.087.279-.167m.269-6.697.034-.062c-.466-.688-.887-1.624-1.672-1.919l-.04-.038a.118.118 0 0 1 -.018.021l.917 1.205.002.059c-.448-.249-.756-.742-1.259-.923l-.039-.038c-.013.014-.024.029-.035.043l.949 1.122v.02l-.866-.287-.019.002-.016.04c.378.434.925.625 1.393.956l.075-.025-.34-.679-.008-.14c.307.219.587.478.942.643m-2.017 4.416c.369-.452.04-1.115-.12-1.531l-.039-.023c.228.734.106 1.035.159 1.554m-.637.107c-.008.009-.007.022-.01.033-.036.119-.09.263-.023.379.059.099.059.397.142.304.463-.523.196-1.554-.236-1.99.25.252.36.995.127 1.274m-2.549 2.16c-.042.295-.134.519-.117.838.021.398.446.581.562.622-.078-.031-.608-.386-.297-1.544.088-.331-.074-.801-.198-1.097a1.026 1.026 0 0 1 .082-.993c.27-.403.615-.329 1.021-.408.281-.055.302-.124.452-.164-.155.009-.428.039-.635.049-.38.019-.815.109-1.093.404a.811.811 0 0 0 -.207.396c-.066.328.058.693.223.997.15.277.253.576.207.9m1.305-2.451c-.266.127-.555.104-.787.315-.553.501-.073 1.096.254 1.547.18.247.125.765.125.765s.153-.238.139-.495-.096-.251-.294-.84c-.137-.405.109-.682.39-.914.141-.115.286-.221.409-.354.146-.156.177-.377.314-.532-.167.187-.324.4-.55.508m.363.114c-.075.07-.143.147-.204.229-.23.333-.191.791.025 1.115-.013-.06 0-.118-.002-.178-.018-.491.332-.83.571-1.212.136-.216.092-.533.071-.777-.06.129-.08.29-.14.426-.068.154-.197.275-.321.397m.412.648c-.074.182-.355.626-.233.821.003.005.162-.174.162-.168.045.822.158.082.186-.227.021-.222.031-.478.002-.701.008.063-.092.214-.117.275m-.148 1.929c-.058.25-.345.483-.437.576 0 0 .301.038.565-.472.285-.552.081-.387.335-.822 0 0-.36.273-.463.718m-.339 2.743c-.014.042.208.565.186.599.121.494.012.599.248.944.044-.077-.024-.165-.035-.298-.06-.753-.007-.738-.399-1.245m2.803-.043c-.274-.08-.537.133-.607.297a.46.46 0 0 0 .154.137c.094.055.207.058.193.024-.158-.354.428-.443.36-.02.039-.003.073-.022.135-.054a.38.38 0 0 0 -.235-.384m.172.03c-.178-.272-.596-.232-.85.012l.026.118c.347-.259.569-.341.824-.13m-.122.527c-.493.123-.707-.172-.93-.443-.01-.01-.14.038-.154.045-.1.055.002.142.047.194.036.041.076.077.117.112.273.223.553.297.827.263.036-.004.554-.041.359-.225-.058-.055-.227.044-.266.054m1.587.704-.158-.11-.019.001-.034.402c-.127.325-.685.868-.535 1.274.388-.173.791-1.009.746-1.567m-10.557-5.546c-.177.908.659 1.535.998 2.02-.051-.071-.264-.141-.341-.209a1.89 1.89 0 0 1 -.265-.299 3.38 3.38 0 0 1 -.442-.862 4.27 4.27 0 0 1 -.196-.715c-.035-.193.005-.553-.092-.707-.214.609-.134 1.264.111 1.844.105.249.23.503.401.71.189.228.448.323.657.515a.783.783 0 0 1 .188.322c.068.189.102.406.131.566a1 1 0 0 0 -.321-.545c-.061-.058-.44-.362-.529-.256l-.018.021c-.036.044.009.218.023.268.022.077.136.315.186.42-.087-.039-.264-.34-.305-.424a1.76 1.76 0 0 1 -.114-.312l-.059-.036-.017.022c-.027.031.053.223.068.259.033.085.074.166.114.247.104.206.178.408.198.643.042.498-.001 1.002.011 1.501 0 .026.011.133-.025.095-.022-.023-.026-.117-.031-.147-.018-.101-.041-.205-.048-.307-.027-.385.094-.769-.017-1.147-.174-.586-.475-.954-.525-1.689-.016-.352.017-.582-.031-.483-.061.125-.065.447-.065.573-.023.635.357 1.246.442 1.79.087.551-.182.985.053 1.658.182.52.722.743.928 1.19.213.465.203.977.452 1.354.561.848 2.067 1.53 3.157 1.728.422.077.75-.131.983-.34.092-.083.126-.241.248-.295l.549.026.751-.426.001.02c-.318.531-.686.341-1.212.634-.357.2-.753.582-1.376.404l-.016.042c.599.351 1.3.506 2.156.408l-.145.089a.72.72 0 0 0 .02.039c.767-.196 1.346-.413 1.987-.642.32-.114.659-.111.929-.257.492-.264.724-1.187.48-1.951a.437.437 0 0 1 -.038-.017c-.07.115-.04.594-.033.782l-.125-.532c-.005-.014-.013-.026-.02-.039l-.038.002c-.011.008-.024.015-.036.022-.021.717-.024 1.272-.555 1.595l-.019.002.321-.34c.165-.268.259-.97-.061-1.138-.194-.187-.542.049-.652.18-.255.306-.094.89-.252 1.277-.085.211-.256.317-.408.465l-.076.005c.382-.478.63-.538.448-1.468l-.038-.018c-.154.355-.466 1.346-1.011 1.202.438-.218.538-.4.645-1l-.06-.056c-.091.19-.237.395-.467.449.154-.213.373-.389.395-.725l-.038-.018c-.206.283-.66.501-1.147.451.355-.184.692-.204.837-.572l.071-.084c-.171-.013-.383.121-.538.173-.734.246-1.058.358-1.383.965l-.055.023c.086-.602 1.236-1.205 1.733-1.466l.035-.063-.021-.039c-.662.137-1.344.262-1.84.553l-1.041.665c-1.393.505-2.778-1.078-3.011-2.178.176.154.333.464.424.722.176.493.729.83 1.148 1.043l.016-.041a.766.766 0 0 0 -.05-.076.566.566 0 0 0 .082.006c.242.223.534.221.892.374l.358-.022.017-.022-.001-.019-.483-.211c-.627-.442-.95-1.358-.907-2.426-.99-.584-1.387-.857-1.562-2.266l.018-.001c.045.244.206.488.25.732.155.597.786 1.139 1.318 1.273.151-.191.216-.403.403-.565-.146-.426-.504-.805-.655-1.281-.417-1.304.161-2.916-1.246-3.746l-.002-.04c.321.068 1.093.476 1.235.765l.058.036.051-.216c.056-.242-.899-.672-1.042-.719-.225-.072-.471-.134-.661-.288-.23-.188-.309-.375-.506-.563.013.013-.218.484-.237.542-.1.3-.195.718-.071 1.008.285.669 1.129.756 1.465 1.338.237.41.218.891.216 1.353-.002.491.38.89.612 1.318-.692-.413-.621-1.352-.873-2.108-.329-.983-1.522-1.208-1.761-2.281-.021-.011-.04-.024-.06-.036m6.481 7.357c-.293-.126-.645-.065-.782.207l.02.019c.176-.085.611-.089.762-.226m-2.041.685c-.876-.177-1.238-1.679-.741-2.517l.056-.023c-.058.212-.201.395-.208.674-.017.601.417 1.352.983 1.42.182-.153.318-.243.348-.542l-.001-.02a.327.327 0 0 0 -.25.053c-.056.034-.126.134-.187.15-.122.031.009-.144.036-.173a.579.579 0 0 1 .106-.092c.024-.017.105-.043.118-.067l.034-.062c-.002.004-.216-.005-.243-.004-.192.012-.237.196-.39.181a.45.45 0 0 1 .217-.258c.036-.021.18-.089.176-.145v-.02c0 .015-.2-.059-.217-.063a1.189 1.189 0 0 0 -.223-.015c-.145.009-.173-.042-.136-.087.137-.162.779.176.885-.414l.035-.043c-.323-.225-.713-.664-1.206-.646-.911 1.009-.289 2.452.742 2.877.439.197 1.57-1.03 1.231-1.677-.116-.221-.486-.415-.708-.517l-.035.042a1.81 1.81 0 0 1 .502.57c.007.473-.317 1.54-.924 1.418m-2.604-12.39-.038-.018c-.501.737-.114 1.859.3 2.383.044-.099-.18-.457-.225-.647-.123-.514-.021-1.2-.037-1.718m-.593 1.597c-.295-.858.432-1.457.533-2.014l-.032-.599c.068-.73.41-.9.796-1.369a.242.242 0 0 0 -.021-.039c-.768.235-.857 1.285-1.023 2.064l-.537 1.594c-.314 1.691 1.404 2.231 2.044 3.137.237-.162.139-.721.005-.941-.418-.688-1.473-.986-1.765-1.833m1.187 2.304c-.172-.17-.678-.329-.866-.478-.272-.216-.514-.447-.666-.774a1.921 1.921 0 0 1 -.164-.7l-.02-.019-.019.001c-.236 1.059.696 1.54 1.373 2.052.097.074.512.155.599.241.099.1.236.182.318.334-.013-.229-.404-.509-.555-.657m-1.722-3.112a1.4 1.4 0 0 1 -.04-.038c-.274.485-.622 1.158-.293 1.9l.01-.841c.059-.377.18-.72.323-1.021m-26.662 4.094a11.316 11.316 0 0 0 1.009 6.467 11.326 11.326 0 0 0 6.489 5.838 11.325 11.325 0 0 0 8.716-.46 11.33 11.33 0 0 0 4.851-4.393 10.927 10.927 0 0 0 1.155-4.506 11.09 11.09 0 0 1 -.545 2.278 10.93 10.93 0 0 1 -5.634 6.261 10.933 10.933 0 0 1 -8.41.444 10.936 10.936 0 0 1 -6.262-5.634 10.93 10.93 0 0 1 -.443-8.411 11.13 11.13 0 0 1 1.008-2.114 10.91 10.91 0 0 0 -1.934 4.23m-2.669-1.928c-.274-1.385-1.39-2.104-1.595-2.173s-.595-.293-.595-.293c.085.137.34.276.528.431.676.56.885 1.138.885 1.138-.358-.345-.953-.621-1.294-1.035-.182-.22-.317-.638-.376-.844l.037.36c.044.205.171.669.458.881.279.205 1.345.742 1.516 1.605.037.187.057.346.066.481-.288-.982-1.258-1.274-1.735-1.775a1.151 1.151 0 0 1 -.257-.46l.004.095c.068.289.202.611.468.791.557.377.763.523.908.816.114.231.19.723.216.992a4.95 4.95 0 0 1 .057.543s.323-.915-.17-1.587c0 0 .567.354.443 1.242a2.63 2.63 0 0 0 -.003.799c.007-.026.049-.111.241-.385.289-.414.3-1.104.198-1.622m-.357 2.997c-.047-.31-.26-.372-.526-.496.052.223.238.379.302.495.073.132.057.361.122.476a.337.337 0 0 0 .134.128c-.006-.056-.032-.164-.032-.186 0-.144.026-.248 0-.417m.534-1.48c.138-.191.421-.526.436-.775.017-.291.058-1.126-.327-1.628l-.002.001c.055.124.48 1.358.057 1.851-.298.347-.344.654-.469.933-.204.471-.089 1.006.014 1.398s.103.799.103.799c.156-.498 0-1.166-.051-1.546a1.53 1.53 0 0 1 .241-1.048zm-1.23 8.212c.16-.271.354-.554.327-.573-.07-.047-.186.045-.186.045-.131.07-.076.285-.239.441s-.5-.016-.5-.016c.138.106.439.372.598.103m-.213-.672c.073-.078.144-.213.209-.372a1.74 1.74 0 0 1 -.483.499c-.106.077-.175.211-.267.338.163-.092.346-.258.541-.465m-34.984-20.64c-.231.105-.484.149-.718.249-.453.196-.942.61-1.091 1.102a2.74 2.74 0 0 0 -.095.668c-.007.143-.011.286-.023.428-.005.076-.186.963-.136.966l.075.004.646-.73-.017-.039-.018-.002-.235.141-.019-.002.005-.095.429-.551-.037-.022c-.069.03-.085.045-.191.047l.001-.02c.088-.129.42-.39.369-.516l-.273.138.005-.077.608-.733-.016-.039-.273.138c.144-.453.755-.643 1.021-1.016zm-.897 2.482c-.32.49-.814.827-1.113 1.318l.113.007-.259.58.073.043c.794-.847 2.27-.949 2.5-2.447a.36.36 0 0 1 -.018-.02l-.078.053c-.156.456-1.092 1.378-1.539 1.485l.021-.038c.242-.094.417-.389.58-.58.422-.488.832-.918 1.11-1.587l.239-.869-.035-.041-.041.036c-.917.277-1.114 1.392-1.553 2.06m11.025-4.229c.13-.02.464.116.667.057s.756-.066 1.095-.828c.111-.25.019-.52-.037-.617 0 0-.223.906-.834 1.06-.093.023-.28-.25-.094-.327.891-.366.594-.887.594-.887-.019.154-.389.559-.649.674s-.872-.25-1.058-.211-.259.115-.315.327c-.061.234-.101 1.003-.115 1.246-.03.512.122.602.231 1.099 0-.001-.134-.611.088-1.073s.297-.501.427-.52m6.913-1.156s.051.155.173.227.173.032.264 0 .225-.278.225-.485-.143-.567-.204-.619-.184-.041-.224-.072-.133-.134-.133-.134-.01.041.02.196.253.422.273.535-.059.311-.14.321-.214-.051-.244-.051-.01.082-.01.082m-.856 7.402-.001-.001c-.465-1.256-.927-1.767-1.088-2.166-.139-.343-.449-1.238-.449-1.238.082-.145.041-.568.122-.774s.151-.929.233-1.352.05-.351.05-.351c-.071.052-.377-.124-.377-.124l.061.176-.091.165s-.112-.082-.152-.103l.07.216c-.193.259-.282 2.178-.282 2.178.091.134.183.412.183.412l-.194-.051c.061.113.129.305.286.536a7.98 7.98 0 0 1 .367.589c-.143-.073-.459-.207-.459-.207.55.589.744.981.744.981l.172.299c-.213-.165-.559-.268-.559-.268.369.394 1.324 1.055 1.363 1.082l.011.032zm.225.464c-.103-.145-1.162-.526-1.162-.526.551.701 1.386 1.383 1.386 1.383-.764-.186-1.345-.537-1.345-.537.183.361 1.263 1.383 1.263 1.383-.347-.093-1.69-.774-1.69-.774.203.288 1.679 1.454 1.679 1.454-.376.032-2.056-.773-2.056-.773.112.279 1.435 1.599 1.435 1.599-.254.021-1.843-.826-1.843-.826.897 1.002 1.65 1.457 1.833 1.394.479-.166.387-.857.387-.857a1.4 1.4 0 0 0 .377.073c.122-.105.008-.447.214-.878l.132.021c.205-.392-.509-1.992-.61-2.136m-2.853 2.932c1.479 1.844 3.736 2.17 3.736 2.17s-.379-.23-.664-.364-.777-.558-1.289-.788-1.783-1.018-1.783-1.018m12.355-6.713c-.109-.298-.231-.404-.345-.605a3.803 3.803 0 0 1 -.228-.467c.189-.039.114-.398.126-.868.016-.644.066-1.461-.013-1.633-.136-.299-.317-.414-.317-.414-.25.138-.295.62-.227.895s.068.666.068.666l-.293-.772c-.496-1.358.067-1.844.067-1.844-.34 0-.838.459-.996 1.147s.316 2.548.679 3.489c.236.615.328 1.513.364 2.062l1.107.128c-.269-.064-.814-.331-.814-.331s-.136-.115.067-.023.929.046.929.046a2.09 2.09 0 0 1 -.064-.218s.303.116-.088-.429c0 0 .189.024.171-.093-.041-.144-.249-.322-.266-.457.185.056.103-.195.073-.279m2.248.47c-.569-.782-1.469-1.573-1.361-2.844a.65.65 0 0 1 .52-.551c.107-.013.873-.103 1.063-.218s.393-.719.431-1.001c.03-.227.085-.33.046-.502l-.011-.012-.002.016c-.01.063-.04.166-.11.334-.18.436-.105.663-.453.803-.339.138-.747.115-.996.276 0 0 .271-.253.362-.666.048-.22.77-.459.363-.734-.408.551-.929.573-.929.573-.249.092-1.061-.189-.952.873.15 1.438 1.541 3.328 1.881 3.947a3.1 3.1 0 0 1 .362 1.24l.303.053.021-.012a2.92 2.92 0 0 0 -.538-1.575m-.982 1.52c-.172-.007-.672-.064-.99-.094l-1.885-.196a4.38 4.38 0 0 0 -.549-.04 10.85 10.85 0 0 0 -2.228.249c-.742.156-2.468 1.028-2.873 1.236a4.512 4.512 0 0 1 -1.01.453c-.309.09-.559.304-.67.328 0 0 .907.288 1.458.272 0 0-.449-.176-.536-.224 0 0 1.183.01 1.522-.152a.59.59 0 0 0 .244-.248s.071.096.079.2c0 0 .237-.024.307-.024 0 0-.189.24-.33.295l.141.129v.016l-.221.103.205.136-.133.088c.078.056.425.455.291.4s-.772-.089-.772-.089c.725.256.741.648.741.648-.229-.048-.544-.032-.544-.032a1.71 1.71 0 0 0 .323.239 1.16 1.16 0 0 1 .252.647l-.337-.04c.493.308.531.999.531.999-.133 0-.266.039-.266.039.152.346.588 1.383 1.119 1.825 0 0-1.059-.44-1.769-.606l.577-.154c-.451-.331-.64-.639-.64-.639.173.042.451.058.451.058-.152-.077-.686-.734-.686-.734.389.04.853.038.853.038-.891-.576-2.313-.71-2.313-.71.133.153 1.1 1.152 1.1 1.152-.38-.019-1.271-.288-1.271-.288.304.365 1.119 1.133 1.119 1.133-.266-.019-1.878-.422-1.878-.422.513.423 1.859 1.268 1.859 1.268-.379.039-1.176-.019-1.176-.019.304.211 1.479.576 1.479.576-.455.058-2.009-.019-2.009-.019.417.326 1.289.519 1.289.519-2.218.192-3.357-.058-3.357-.058s.911-.154 1.328-.481c0 0-1.214-.076-1.839-.652l.796-.078.342-.173s.91.481 1.27.481c0 0-1.403-.999-2.086-1.172 0 0 .151.25.284.327s-.038.038-.038.038-1.08-.48-1.668-1.402c0 0 .151-.692.019-.98l-.209-.327.247.058s-.588-.903-.645-1.268c0 0 .663.884.835.96 0 0-.588-.999-.683-1.498 0 0 .721.883 1.062 1.133 0 0 .234.227.322-.154.071-.169 0-.391.152-.71 0 0 .171.095.342.153l-.74-.941s.322.115.55.154l-.437-.557s.113-.029.136-.127a1.58 1.58 0 0 0 .358.184l-.285-.326s.171-.923.095-1.422c0 0-.265-.423-.379-.692l-.057.173s-.474-.692-.512-.864c0 0 .512.365.663.422l-.663-1.095s.265.173.399.192l-.342-.538.076-.346a1.74 1.74 0 0 0 .19.116s-.038-.231-.133-.365l.095-.346a.83.83 0 0 0 .227.25s-.26-.769-.316-1.154c0 0 .095.077.208.116s.304.172.304.172-.266-.807-.266-.979c0 0 .835.46 1.024.46 0 0 .019-.095 0-.153l.247-.02s.274.251.464.231.498-.226.662-.301c0 0 .764-.059.801-.347s.182-1.004-.353-1.311l-.023.104.081.083s.07.056.07.247c0 .265-.122.37-.182.416-.225.17.217-.416-.274-.804-.125-.099-.499-.189-.412-.038.159.273.163.49.075.589-.199.224-.177-.471-.634-.651a1.319 1.319 0 0 0 -.581-.071c-.187.039-.081.493.05.549s-.056.209-.056.209-.112.189-.093.284-.486-.304-.805-.322c0 0 .044-.341-.012-.511-.053-.161-.339-.187-.497-.11a.966.966 0 0 0 -.308.451c-.063.181-.158.521-.262.839a5.18 5.18 0 0 1 -.762 1.424c-.265.338-.559.667-.714 1.077-.219.583-.157 1.051-.126 1.306s.346.871.409 1.083.021.542.011.69-.168.52-.283.712c-.085.14-.33.478-.452.645-.07.115-.125.206-.145.249-.229.491-.427.796-.563 1.321-.083.321-.104.653-.119.983-.012.299.021.624-.006.953-.009.335.035 1.446.906 2.658 0 0-.48-.011-1.679-1.826-.699-1.057-1.455-2.615-1.455-2.615s.138-.005.307.043c-.617-.576-.93-1.405-1.275-2.167-.386-.854-1.287-2.661-1.809-3.416-.572-.84-1.65-1.7-2.893-1.479l-.827.278a.435.435 0 0 0 .02-.037c.354-.126.686-.396 1.086-.493.792-.193 1.562.225 2.011.521a4.91 4.91 0 0 1 1.044 1.036c.651.88 1.476 2.584 1.902 3.512l.469 1.052a23.16 23.16 0 0 0 .524 1.104c.084.162.174.32.261.481.233.434.559 1.001 1.136 1.071a7.89 7.89 0 0 1 -.08-.508c-.105-.89-.105-1.974.572-2.651.037-.039.15-.121.272-.215.237-.224.356-.451.394-.607.043-.169-.02-.361-.083-.584s-.115-.403-.283-.446-.367-.032-.524-.095c-.139-.056-.351-.304-.381-.369l-.007-.013c.147.084.263.053.263.053-.043-.064-.148-.297-.441-.414s-.419-.414-.419-.414c.126.063.367-.032.367-.032a.557.557 0 0 0 -.147-.244c-.294-.298-.345-.51-.345-.51l.262.032c.01-.138-.111-.339-.252-.499-.168-.191-.158-.382-.158-.382s.148.085.282.075c.007-.122-.066-.203-.093-.32-.01-.043-.084-.276-.041-.382.011.005.131.073.135.042.001-.001.01-.066.01-.254s-.024-.26-.244-.483c-.167-.17-.303-.409-.322-.652-.019-.25.022-.558-.032-.815-.044-.207.193-.414.302-.418.346-.01.59.064.904.043s.549-.132.822-.163.674-.08.852-.017.275.095.433.095.231-.096.367-.096.126.234.136.309.042-.033.063-.16.01-.149-.052-.254a.287.287 0 0 0 -.2-.129.658.658 0 0 0 -.23.011c-.137.033-.199.085-.283.085s-.211-.116-.681-.138c-.344-.015-.674.081-1.011.122-.468.058-.94-.112-1.402-.009-.341.075-.687.31-.835.639-.018.038-.126.593-.085.586l-.126.021c.032.361.054 1.381.054 2.017 0 .362-.058.801-.108 1.114.005.02.002.047-.012.084l-.05.275c-.027.284-.021.662-.021.809a.61.61 0 0 0 .021.169l.284.475.039.054c.286.386 1.273 1.361 1.344 1.783.047.278-.051.587-.124.766l.166.363.033.35-.294-.598.003-.02c-.214-.436-1.341-2.259-1.889-3.314-.383-.734-1.781-2.285-2.006-2.466-1.213-.978-3.435-1.157-4.427.137l.055.368.245-.005-.001.019c-.028.075-.034.155.007.212l.381-.055.048.157.019.001c1.247-1.089 2.419-.602 3.207.401.812 1 2.421 4.832 2.837 5.745l.001.005c.715 1.448 1.302 2.745 2.29 4.048.279.369.703.989 1.049 1.294.488.431 1.02.879 1.597 1.179a11.07 11.07 0 0 0 .458.225c.321.117.731.253.997.295.493.077 1.024.288 2.142.288.721 0 1.359-.345 2.211-.596 1.176-.345 2.242-.099 2.985-.076.575.017 2.058.213 2.702.245.174-.034.296-.113.451-.266 0 0-.374 2.103.103 3.057.328.654.762.787 1.083 1.329.272.456.065 1.308.271 2.132.055.218.206.449.346.621.308.377.758.61 1.18.835a1.77 1.77 0 0 0 .399.166c.466.119.956-.072 1.356-.3.144-.082.284-.184.405-.297.417-.389.843-.169 1.038-.147 0 0-.591.103-.757.285-.259.285-.556.592-1.166.657-.534.057-.271.403-.271.403l-.018-.012c.318.391.431.704 1.305.704.431 0 .524.034.896.229s.889.176 1.149.099.033-.27.638-.37 1.27-.252 1.792-.514c.455-.23.361-.406.468-.644l.006-.021.018-.044s.011-.025.017-.033c.12-.227.434-.53.898-1.079.338-.401.29-.96.29-.96.16-.203.174-.206.346-.38.153-.156.066-.156.044-.267-.031-.154.065-.2.307-.378s.221-.667.396-1.156a8.27 8.27 0 0 0 .13-.397l-.015.019c-.101.11-.104.15-.208.301s-.129.586-.219.767-.133.316-.297.572-.593.466-.593.466.327-.361.371-.481a5.07 5.07 0 0 0 .102-.333l-.043.095c-.109.232-.286.44-.551.459-.405.029-.754-.261-1.17-.201-.128.018-.204.133-.323.168-.038.012-.114.035-.159.021l.015.074c.043.006.12.014.172-.006.074-.027.108-.164.399-.157.318.008.392.144.501.199s.155.027.216.006c0 0 .122.014.155.131l-.052-.008c.012.034.104.282.043.375-.032.047-.174.101-.322.146.008.029 0 .18-.009.211-.017.06-.058.087-.079.154a1.366 1.366 0 0 1 -.128 0c-.035-.081-.403-.095-.475-.143-.055-.036.121-.055.011-.123-.062-.037-.156-.034-.254-.019l.011.011c-.007-.004-.016-.006-.024-.009-.067.011-.135.027-.195.04-.035-.003-.062.006-.082.011-.119.027-.265-.047-.361.04.047.127.477.049.6.073.043.164-1.079.207-1.032-.041.153.002.093-.213-.001-.246-.102-.036-.292-.004-.401.001a.142.142 0 0 0 0 .058c.094.076.276.256.041.233-.114-.012-.269.071-.383.064a.648.648 0 0 1 -.362-.154c-.083-.07-.183-.186-.312-.316.108.01.333.17.432.226.143.082.262.088.431.08a.13.13 0 0 0 0-.048c-.14-.049-.236-.062-.357-.154a2.174 2.174 0 0 0 -.4-.249c.129-.023.269.048.373.034.078-.046.008-.233-.165-.291-.112-.039-.133-.007-.196-.016-.145-.022-.191-.026-.326-.104-.221-.127-.418.043-.522.171-.032.039-.059.084-.114.082-.137-.005.046-.14.066-.201.012-.033.042-.182.111-.154-.09-.037-.243-.121-.277-.28-.041-.19-.186-.406-.177-.451.016-.085.249.248.305.439a.3.3 0 0 0 .294.19.605.605 0 0 1 .082-.027.862.862 0 0 1 -.381-.557.7.7 0 0 0 -.134-.287.96.96 0 0 1 -.213-.197c-.014-.025-.021-.048-.015-.068.01-.042.08-.025.178 0a.507.507 0 0 0 .194.11c.075.016.169-.024.242.002.095.033.075.098.168.09.003.012.006.023.007.037.221-.032.256-.011.472.018-.111-.061-.134-.136-.135-.256.051.047.066.099.127.14s.102.048.162.094c.104.083.231.183.297.293.064.104.086.188.201.236.08.033.211.089.293.029 0 0-.144.141-.249.157-.139.021-.038.1-.011.353.009.127.075.247.299.336.101.044.284.019.392.003 0 0 .386.169.563.044.158-.111.232-.32.255-.466a.118.118 0 0 1 .008-.067l.001-.025c.053-.118.21-.015.353-.137.114-.098.254-.168.407-.135.187.042.396.194.589.221.273.04.584.01.777-.215a1.03 1.03 0 0 0 .194-.347c0-.056.015-.268.015-.355s-.09-.421-.09-.647c0-.18.064-.338.094-.512.054-.327 0-.642-.184-.911a2.1 2.1 0 0 0 -.241-.282c-.026-.026-.099-.07-.114-.104-.142-.341-.103-1.035-.102-1.036a1.82 1.82 0 0 1 .023-.447c.061-.334.029-.339-.021-.606-.061-.335-.336-.695-.701-.942-.285-.192-.467-.391-.575-.585.005.034.01.061.016.077.064.193.28.483.414.612s.193.377.331.447c0 0-.165-.014-.303-.175-.082-.095-.191-.227-.226-.227-.076 0-.118.054-.14.141-.051.207-.102.258-.191.335l-.101-.347c-.09-.194-.153-.194-.216.012-.035.111-.14.271-.14.271-.017-.096.003-.279.04-.481.002-.085-.005-.137-.034-.093-.057.086-.146.303-.146.303a.328.328 0 0 1 -.038-.1 10.76 10.76 0 0 1 -.115-.428c-.153.31-.128.67-.128.67-.316-.221-.163-.819-.152-.995-.2.313-.218.622-.241.776-.026.167-.064.619-.064.619-.114-.4-.011-1.077-.038-.967-.14.571-.283.953-.367 1.151l-.022.052a1.88 1.88 0 0 1 -.093.22c-.068.131-.185.262-.262.367s-.219.327-.24.447c-.015.087-.071.301.058.497.058.087.134.146.307.155.055.004.713-.032.978.015.302.028.657.123.805.233.128.094.15.144.149.166.023-.054.106-.226.297-.258.225-.039.799-.054 1.176.16s.755 1.002.408 1.727-.886 1.235-.76 1.061c.048-.066.251-.356.261-.438s-.147-.012-.166-.058c-.006-.016.018-.034.018-.034a2.19 2.19 0 0 0 .198-.192 1.52 1.52 0 0 0 .323-1.478 1.32 1.32 0 0 0 -.733-.649c-.304-.083-.775-.025-.864.152-.033.069-.102.234.07.173s.451-.01.451-.01c-.538.128-.381.159.009.103.26 0 .281.095.281.095-.631.037-.64.188-.64.188.714-.047.929.297.929.297-.283-.263-.939-.085-.939-.085a2.78 2.78 0 0 1 .667.188c-.362-.114-.689.11-.568.079s.563.027.676.211c-.375-.102-.689.01-.76.056-.27.172-.237.391-.197.487s.165.167.318.153c.169-.023.339-.091.418-.149.091-.001.034.195.034.195-.046.115-.084.219-.113.23.101-.321-.15-.179-.205-.163-.5.244-1 .127-1.176.025-.192-.138-.321-.403-.321-.403.711.47.891-.483.555-.542a.245.245 0 0 1 .114.244c-.017.189-.225.276-.305.276-.26-.003-.36-.23-.549-.221-.093.004-.095.016-.095.016.018-.118.267-.279.483-.27.15.006.251.11.309.253.074-.089.041-.292-.17-.351a.69.69 0 0 0 -.542.099c-.235.161-.187.355-.062.539.09.133-.173.098-.173.098s-.214-.455.104-.658c.214-.137.609-.28.879-.181.034-.24-.756-.321-.996-.046 0 0 .03-.144.125-.211.492-.347 1.006.018 1.061-.118-.089-.039-.365-.148-.585-.125 0 0 .013-.104.164-.111a1.26 1.26 0 0 1 .363.034c-.151-.357-.811-.158-.811-.158s-.194-.084.257-.174c.181-.038.449-.049.627.161.061.073.097-.172-.235-.35-.136-.072-.379-.232-1.47-.222-.333.004-.464-.096-.537-.218-.009-.016-.015-.034-.024-.051-.096-.184-.001-.432.124-.714l.043-.092.012-.029c-.097.219-.3.344-.441.544-.197.281-.171.786.02.972-.399-.249-.266-.627-.266-.627-1.706.658-1.07 2.269-1.07 2.269-.133.051-.284-.186-.284-.186-.134.338.151.642.151.914 0 .266-.077.369-.085.652l-.009-.011c-.036.518.129 1.089.427 1.391.318.321.795.153.795.153s-.168.185-.335.203c0 0 .217.05.301.05 0 0-.033.119-.116.187 0 0 .346-.016.25.016-.051.017-.345.188-.861 0-.393-.143.342.153.593-.135.071-.081-.142-.001-.493-.136-.189-.073.192.102.41-.101l.12-.04c-1.25.362-1.466-1.344-1.466-1.704 0-.247-.041-.354-.07-.397l-.024-.029c.012.407-.212.783-.143 1.132.083.424.628 1.131.615 1.216s.013.312-.252.34c-.132.014-.757.039-1.243.254-.337.149-.513.439-.698.439-.114 0-.208-.077-.465-.403-.085-.027-.917-.383-1.187-1.208-.207-.634-.011-1.305-.195-1.95-.165-.576-.317-.782-.8-1.131.407.294.526.215.76.721.333.722.111 1.289.196 1.872s.412.96.903 1.292c-.242-.308-.329-.455-.416-.784-.131-.499-.247-1.192.173-1.685-.509-.302-.45-.984-.45-.984.065.081.337.113.337.113-.203-.171-.573-.784-.774-1.133-.326-.556-.701-.892-.862-1.073-.125-.166-.191-.212-.191-.212-.001.146.028.306.058.447.027.123.12.29.179.399.042.075.18.215.236.278-.183-.092-.365-.343-.457-.502a1.35 1.35 0 0 1 -.158-.673 6.01 6.01 0 0 1 .023-.52l.007-.078c0 .227.337.617.337.617.064-.228-.096-.617-.096-.617.513.877.833.633.833.633.112-.162-.593-1.006-.593-1.006.176.211.865.535.865.535.256-.551-.529-1.249-.529-1.249.497.081.947.489.947.489s.035-.157-.212-.385c-.77-.716-.578-1.159-.578-1.159.592 1.168 1.029 1.298 1.029 1.298-.147-.3-.316-.589-.462-.888-.251-.514-.173-1.121-.361-1.658-.227-.646-1.162-1.722-1.162-1.809a5.14 5.14 0 0 0 1.285 1.284c.283.412.206.929.253 1.024.099.2.241-.664-.006-1.224-.461-1.044-1.475-1.744-1.475-1.744.581.13 1.416.847 1.416.847-.268-.717-1.686-1.88-1.686-1.88.185.058 1.432.919 1.432.919-.624-.747-2.069-1.622-2.069-1.622.539.546.68 1.349.68 1.349-.212-.201-.524-.373-.524-.373.255.272.411.803.411.803-.128-.186-.51-.358-.51-.358.184.316.241.99.241.99a2.118 2.118 0 0 0 -.283-.244c.07.244 0 .718 0 .718-.326.028-.412.402-.412.402s-.056-.661-.184-.919c0 0 .256.158.312.244 0 0 .07-.344-.283-.588l.128-.201s-.114-.302-.298-.474c0 0 .198-.043.411.057l-.666-.904s.339.144.553.173c0 0-.072-.675-.822-1.163 0 0 .34.086.608.273 0 0-.607-1.365-1.804-1.494 0 0 .43.25.554.354l-.268.021a6.86 6.86 0 0 0 .698.706s-.574-.29-.882-.415c0 0 .575.353.944 1.164 0 0-.452-.291-.738-.354 0 0 .512.811.574 1.081 0 0-.144-.042-.308-.063 0 0 .184.416.267.52l-.205-.021a9.95 9.95 0 0 0 .533.832l-.492-.125s.492.769.882.894c0 0-.451.125-.76-.104 0 0 .221.833.554.852 0 0-.326.217-.657-.041 0 0 .098.418.379.563 0 0-.343-.02-.29.21 0 0-.411-.396-.473-.583l.165.052s-.236-.25-.349-.354l.277.063s-.402-.406-.432-.501l.308.064s-.195-.24-.246-.344l.39.115s-.257-.313-.535-.563l.196.021.02-.031s-.195-.177-.277-.291l-.005-.008.417.039s-.412-.469-.504-.635a11.91 11.91 0 0 0 .411.041s-.247-.416-.421-.541-.288-.271-.288-.271.38-.02.657.136c0 0-.051-.386-.77-.532 0 0 .143-.25.637-.104 0 0-.054-.426-.709-.582l.082-.074-.216-.176.154-.063-.184-.229.369.031s-.071-.228-.339-.353-.482-.084-.482-.084.209-.36.707-.622a7.27 7.27 0 0 1 .582-.331c.215-.113.446-.22.647-.278.574-.166.81-.293 1.22-.377 1.326-.268 2.888.201 4.205.368a8.34 8.34 0 0 0 2.112.024l-1.972-.296zm-8.439 4.013c-.213-.024-.694-.176-1.34-.24l1.497.591s.127-.2.726-.208l-.339-.167s-.332.048-.544.024m.307-.623s-.213-.128-.362-.16c-.338-.072-.699-.016-1.027-.137l.002.001c.283.214.62.415.961.511 0 0 .087-.231.426-.215m-1.009-.671c.095.008.567-.04.764-.025s-.496-.111-.591-.239l-.402.008c-.055 0-.536-.032-.536-.032s.671.28.765.288m16.569 12.983c-.185.09-.656.027-.777-.048a1.85 1.85 0 0 1 -.21-.161l-.014.098a.224.224 0 0 0 .074.112c.34.281.903.178 1.002.133s.264-.145.187-.29a.3.3 0 0 1 -.033-.081.108.108 0 0 0 -.055.026c-.077.078.121.067-.174.211m-.429-.406c.274-.052.276.325.22.325 0 0 .128-.008.216-.063 0 0-.02-.336-.4-.35a.417.417 0 0 0 -.384.199c-.014.028-.055.055-.055.055s.102.149.244.149c0 0-.172-.251.159-.315m-2.894-.899c.316.117.063.41.063.41h.286c-.054-.034.045-.231-.176-.42-.288-.248-.594-.067-.594-.067-.011.212.167.352.167.352-.078-.158.03-.357.254-.275m.035.559c-.161-.022-.315-.081-.412-.19-.17-.191-.17-.201-.209-.413-.009-.05-.004-.082.008-.104-.039-.033-.073-.08-.139-.074-.017 0-.028.013-.034.034v.01c-.011.368.278.638.661.826.319.156.432-.03.63-.035-.113-.189-.33-.031-.505-.054m2.071-7.715a3.9 3.9 0 0 0 -.137 1.113c.073-.357.525-.815.5-1.253l.002.028c-.019-.456-.123-.855-.123-.855.05.336-.181.749-.242.967m-3.629 2.56c-.144.254-.867.955-1.314 1.396-.589.581-.471 1.58-.471 1.58-.112-.503-.327-1.26.167-1.872.359-.444 1.169-.779 1.362-1.185s-.246-1.023-.225-1.655c.03-.905 1.202-1.624 1.202-1.624-2.435.487-2.019 1.786-2.019 1.786.08.601.483.651.564 1.349.052.451-.6.822-1.141 1.329-.64.6-.351 1.607-.351 1.607-.306-.877-.049-1.494-.049-1.494.209-.6.449-.693.632-1.127.404-.964-.589-1.293-.89-1.517-.397-.295-.345-.744-.345-.744a1.02 1.02 0 0 0 .489.508c.575.252 1.194.874 1.019 1.715.085-.369.165-1.209-.606-1.908-.25-.227-.405-.304-.523-.387-.38-.206-.558-.279-.742-.38a2.5 2.5 0 0 1 -.316-.197c.001.189.041 1.257.75 1.649.779.431.736.847.722.976a1.53 1.53 0 0 1 -.096.576c-.138.33-1.128 2.234.464 3.097 0 0-1.753-.632-1.574-2.158.045-.297.259-.663.375-.8.299-.349.595-.999.154-1.346-.344-.271-.602-.65-.602-.65 0 .065.041.251.29.585.16.216.094.47.094.47-.155-.446-.784-.698-.784-.698s.56.698.528 1.266c0 0-.224-.033-.336-.146 0 0 .18.312.116.588 0 0-.191-.508-.709-.653 0 0 .288.373.368.584.152.4-.254.802-.24 1.217.039.829.381 1.614.961 2.207-.336.065-.576-.049-.576-.049.07.535.228.603.346.685.167-.194.464-.246.865-.276a4.6 4.6 0 0 0 -.404-.593c-.279-.346-.324-1.014-.324-1.014.152.43.617.778.789 1.045s.205.258.475.994c.089.241.132.433.151.587.1.241.287.631.522.842.356.32.276.261.405.401s.076.149-.064.129a1 1 0 0 0 -.511.057c-.315.106-.624.522-.973.487-.395-.041-.793-.654-.863-1.004-.109-.54 0-1.051.069-1.192s.281-.257.281-.257-.315.244-.306.63c.008.333.182.739.406.975.09.095.652.482.785.225.109-.21-.229-.7-.396-.781-.286-.14-.524-.06-.661-.101 0 0-.01-.019.137-.019s.248-.04.436.01.344.144.415.25c.227.341.316.321.346.24a.175.175 0 0 0 -.004-.056.75.75 0 0 1 -.075-.074c-.06-.07-.208-.201-.287-.3s-.129-.151-.317-.211-.434-.029-.582-.029c0 0 .138-.041.346-.051s.266.01.405.04c.1.022.229.106.313.17a.41.41 0 0 0 -.033-.118.9.9 0 0 0 -.171-.152c-.158-.11-.156-.152-.278-.22-.169-.096-.444-.1-.444-.1.356-.1.514.12.645.031.082-.056.05-.241-.049-.477-1.216-.2-1.315 1.114-1.014 1.985a1.82 1.82 0 0 0 .726.933c.126.099.279.071.335-.014.607-.923 1.647-.509 1.731-.523s.056-.113.056-.198-.544-.651-.669-1.104.019-.82.027-1.089c.013-.404-.259-.904-.301-.979-.327-.487-.268-1.152-.146-1.469.228-.588.646-.826.646-.826a2.23 2.23 0 0 0 -.569 1.27c-.084.678.819 1.406.819 1.406-.033-.136.118-.373-.067-.593-.662-.794-.332-1.514-.033-1.913l.018-.022a2.43 2.43 0 0 1 .134-.157c.265-.316 1.189-1.022.894-2.183-.092-.362.137-.876.375-1.077-.216.538-.079.928-.034 1.119.043-.542.043-1.012.415-1.659.223-.39.618-.92.928-1.296-2.815 1.818-1.646 3.072-2.014 3.721m-1.407.187c-.005.019-.012.038-.019.057zm2.596-1.817.007.463c.047.47.095.926-.024 1.146-.083.152-.19.289-.317.406 0 0 .886-.288.518-1.422 0 0 .351.83 0 1.286-.717.935-2.774 1.583-1.538 2.964v-.051c0-.37-.089-.697.069-1.056.199-.454.684-.613 1.033-.918.393-.344.7-.85.759-1.377.044-.382-.072-.706.087-1.441s.877-1.134 1.329-2.205c.219-.516.061-.951.049-1.143-.056.599-.167 1.229-1.101 2.01-.592.494-.871.912-.871 1.338m.872.538a4.56 4.56 0 0 1 .102-.604c-.387.761-.193 1.432-.372 1.851a5.54 5.54 0 0 1 -.14.303c.295-.305.395-.628.426-.857-.007-.235-.036-.474-.016-.693m.718-1.785c-.077.136-.163.461-.193.613-.034.178-.063.453-.088.631l-.058.373-.014.076c.11-.444.247-.874.389-1.221.158-.388.679-.687.687-1.373.001-.097-.024-.355-.041-.564.005.807-.451 1.055-.682 1.465m1.26 6.225c-.008.041.301-.381 0-.973 0 0 .048.723 0 .973m-7.754-10.403c-.935-1.277-1.884-.99-1.884-.99.425.731 2.082 1.88 2.082 1.88-.666-.632-1.501-1.607-1.501-1.607.723.1 1.303.717 1.303.717m-2.847-.947c.453.631 2.507 2.497 2.507 2.497-.397-.459-1.402-1.565-1.402-1.565.34.115 1.784 1.407 1.784 1.407-1.104-1.421-2.889-2.339-2.889-2.339m18.374.124.014.003v-.01zm.218 1.097c-.099.02-.202.043-.301.097-.212.117-.206.553-.366.744-.124.15-.304.295-.493.33-.086.015-.56.102-.56-.036 0 0 .786-.123.9-.689.014-.074.207-.187.258-.254-.23.045-.39-.118-.453-.339-.055.24-.483.744-.903.957-.296.15-.737.114-.737.114s.252-.237.42-.503c-.174.173-.422-.065-.469-.127-.152-.202-.025-.612.214-.622-.019.6.154.62.366.524l.012-.033c.054-.188.113-.355.186-.508l-.04-.518c.089-.024.445-.121.534-.114.245-.179.443-.145.632-.145.256 0 .532-.145.532-.145s-.833-.081-1.074-.049-.656.292-.912.309-.977-.017-1.49.113-.89.455-1.45.438-1.99-.734-2.811-.91c-.529-.113-2.083-.737-2.595-.876-.897-.244-.942-.469-1.278-.486v-.029c.09-.071-.821.33-1.304.775-.178.165-.439.933-.694 1.292s-.751.517-.751.517c.057.229.384.33.384.33-.468.101-.779.346-.779.346a1.57 1.57 0 0 1 .297.343c-.256.096-.572.214-.761.371a.693.693 0 0 1 .241.418c-.241-.035-.543 0-.543 0s.341.775.822.947 1.343.404 1.692.95c0 0-.183-.528-.888-.868-.667-.322-.955-.544-.955-.804 0 0 .574-.128 1.114.193-.192-.354-.86-.46-1.059-.748 0 0 .525-.089.957-.067a.757.757 0 0 1 -.361-.585s.301.239.764.297c.408.051 1.083.006 1.281.092 0 0-1.067-.386-1.357-.519-.245-.113-.423-.108-.423-.108s.34-.717 2.677-.086c-.046-.489-.585-.69-.83-1.373-.169-.469.158-.826.201-1.085 0 0 .016-.227.368-.13s.998.7 2.007 1.041 4.524 1.578 5.274 1.265c.272-.113.415-.08.544-.373.07-.16.12-.359.376-.389.272-.033.642-.049.705-.049s.064-.016.048.098-.382.197-.382.36-.008 1.047-.258 1.116c-.422.117-.465.453-1.009.486-.98.058-2.635-.682-3.59-.872-.894-.178-.979-.39-1.852.003-.467.209-1.058 1.038-.73 1.436.592.722.923-.283 1.47-.421.856-.217 3.776 1.054 5.169.973.64-.038 1.114-.387 1.434-.452s1.125-.114 1.43-.228.504-.257.715-.382c.073-.042.16-.071.245-.112a11.58 11.58 0 0 1 .32-.343c.007-.024.017-.044.023-.07.037-.158.207-.2.352-.395-.284-.003-.508-.17-.506-.433m-.385-.695a3.19 3.19 0 0 0 -.083-.4c-.098.225-.624.962-.129 1.039.256.041.257-.325.212-.639m.947-.2c.077.133-.015.43-.066.564a.43.43 0 0 1 -.25.267c.024.194.114.35.352.324.136-.347.125-.876-.036-1.155m11.503-.511a10.833 10.833 0 0 0 -8.334.44 10.83 10.83 0 0 0 -5.58 6.203 10.835 10.835 0 0 0 .439 8.333 10.83 10.83 0 0 0 14.537 5.142 10.833 10.833 0 0 0 5.581-6.203 10.83 10.83 0 0 0 -6.643-13.915m4.423-.419-.065-.072c-.331.24-.304.83-.102 1.116l.165-.072c.101-.301.032-.683.002-.972m1.109.594c-.027-.067-.002-.043-.083-.075-.134.247-.202.496-.278.783l.077.115c.267-.061.395-.504.284-.823m.89 2.097c.225-.078.427-.051.589-.224.143-.418-.208-.417-.293-.677-.17-.527.153-1.03-.656-1.165-.273.237-.326 1.001-.721 1.051l-.025.036c.151.235.474.481.722.629.079.16.091.344.033.513a3.535 3.535 0 0 0 -.099.023l-.059.01c-.446-.876-1.111-1.021-.932-2.427l-.1-.098c-.273.17-.239.774-.514.945l.093.502c.087 1.097.313.946 1.105 1.464.346.227.606.585.92.825l.554.237.834.042c.737-.079 1.281-.284 2.047-.122.312.066.756-.039 1.055.1l.334.107s.108-.246.344-.715.428-.692.428-.692l-.66-.029c-1.514-.388-2.129.186-3.21.436-.614.142-1.49-.268-1.807-.653a2.23 2.23 0 0 1 .018-.118m8.416-2.584c-.076-.038-.161-.069-.245-.109-.901-.431-1.374.2-2.074.308-.69.107-1.424.178-2.043.46-.576.263-1.299.971-1.903 1.017-.409.032-.805-.159-1.203-.247l-.021.017c.04.365.5.429.781.62 1.01-.013.772-.158 1.38-.742l.074.013-.062.273.034.026c.213-.21.482-.4.627-.702l.063-.03c.061.16-.01.335.014.509l.029.065c.191-.108.389-.381.497-.603l.17-.113.019.003c-.054.197-.026.291-.044.519.012.009.022.018.035.026.148-.2.297-.48.512-.58.096.12.046.31.12.445l.355-.546.08-.027.035.026.033.39c.225-.036.454-.384.603-.545l.037.007c.063.072.085.144.093.259a.77.77 0 0 1 .034.026c.289-.217.909-.735 1.452-.476l.23.178.537-.357zm.658-6.034.151-.009c.005-.013.01-.027.017-.041l-.121-.133-.158-.13-.031.122-.072.084zm-.694-.958-.039-.018c-.165.318.136.508.284.704.06-.049.055-.024.068-.125zm.291-.878c-.22.274-.02.781.166.95l.113-.007c.158-.189-.143-.794-.279-.943m1.71-.525c-.054.004-.045-.002-.093.045a1.5 1.5 0 0 1 -.055.024c.018.344.156.473.337.62l.073-.025c-.05-.25-.192-.383-.262-.664m.914.494c-.397-.169-.369 1.029-.905.366-.084-.104-.186-.177-.205-.308l-.039-.017c.004.317.65.937.999 1.029l.022.059.001.02c-.09.024-.949.104-1.035.033-.271-.221-.152-.399-.614-.503a1.822 1.822 0 0 0 -.235-.506l-.057-.016-.07.104c.057.31.136.522.063.817-.063.044-.09.064-.204.073l-.016.04c.258.186.386.527.697.658l.473.032c.454.073.614-.122.86.197.205.264.267.867.184 1.29-.184.929-.672 1.778-.827 2.694-.082.472.02 1.075-.07 1.485-.84.543-2.544 1.041-2.845 2.042-.214.711.367 1.188.102 1.875-.204.533-.893.993-.926 1.591-.041.787.826 1.095 1.188 1.667.406.641.051 1.335-.125 1.954-.216.752.031 1.418 0 2.179-.013.313-.065.9.171 1.136-.035-.035-.25-.234-.282-.837-.016-.285.048-.706-.082-.947-.229.628-.083 1.558.211 2.136.045.089.455.831.538.883.721.451 1.514 1.409 2.142 1.273.005.013-.239-.209-.261-.224.073-.013.992.428.992.428s-.775-.589-.731-.666c.027.118.449.082.516.17-.271-.351-.245-.882-.307-1.312.027.19-.212.53-.212.53.237-.36-.052-1.1-.222-1.393-.241-.415-.81-.526-1.223-.7-.595-.249-.538-.739-.468-.971s.278-.616.313-.849c.044-.298-.072-.565-.171-.812 0 0-.153-.208-.115-.852l.012-.096c.124-1.182-1.343-1.959-1.194-3.093a1.63 1.63 0 0 1 .529-1.012c.207-.178.562-.233.592-.577l.019-.001.019-.002c-.095.561-.636.673-.724 1.286s.682 1.08.823 1.57l.058.037.081-.605.27-.597.072-.065c0 .861-.148 1.17.449 1.654l.019-.001.017-.021-.338-1.36.037-.003c.172.5.489.763.669 1.18l.118.093.036-.042c-.13-.405-.17-.802-.381-1.098l-.002-.019.038-.023.829 1.01c.156-.256-.24-1.08-.332-1.241.213.091.52.506.625.723l.078.055.018-.021c-.116-.767-.202-.999-.415-1.542.291.172.477.56.794.711.033.032-.15.063-.116.095.005-.014.227-.028.232-.041l-.609-1.124-.609-.784c-.111-.167-.155-.369-.292-.502l-.022-.059.037-.022c.374.504.847 1.016 1.376 1.337l.018-.021c-.341-.488-1.144-1.36-1.295-1.922l.019-.002c.432.431.742.953 1.295 1.242l.035-.042c-.402-.341-.767-.913-.968-1.482a2.14 2.14 0 0 1 -.004-.08l.036-.022c.245.388.716 1.062 1.124 1.212l.139.132.017-.041c-.312-.466-.917-.896-1.046-1.518l.019-.001.577.545c.27.177.605.246.909.385l.036-.042c-.418-.532-1.019-.958-1.192-1.769l.018-.001c.253.226.427.418.768.553l.017-.02a11.37 11.37 0 0 1 -.727-1.217l-.002-.02.372.238.04.038.036-.043-.434-.674-.003-.059.057-.004.313.221a.118.118 0 0 0 .018-.021l-.215-.487.032-.102c.123.072.248.469.371.541.075-.155-.221-.396-.261-.624l.018-.021.211.047c.005-.374.131-1.121.136-1.495.077-.629.708-2.09.477-2.671l-.003-.06.173.05.035-.042c-.232-.788-.44-.691-1.018-1.019l-.004-.06.527-.052c.33-.096.501-.457.6-.777-.062-.06-.091-.094-.179-.13-.247.095-.601.182-.88.115-.092-.141-.093-.354-.25-.426m2.175.408c-.275-.735-.557-.51-1.237-.755-.168-.084-.49-.156-.658-.239l-.036.042.372.237c.401.184.98.005 1.256.334.224.268.279.75.436 1.094.089-.151-.066-.534-.133-.713m.18.87a1.33 1.33 0 0 1 -.327-.1c-.049.12.253.47.263.664l.024.079-.288-.063-.016.041c.124.153.248.31.366.478.114-.187-.002-.828-.022-1.099m.065 1.196-.305-.041c-.052-.013-.033-.008-.073.024.135.196.263.34.371.578a.51.51 0 0 0 .038-.002zm.063.797-.313-.181-.057-.017c.022.188.261.526.379.718.041-.063.005-.325-.009-.52m.401 3.724c-.08-.559-.058-1.001-.142-1.551-.075-.491-.127-.984-.184-1.477a.636.636 0 0 1 -.421-.094l-.035.042c.154.311.419.55.504.93l-.345-.099-.034.062c.197.138.331.734.435.986l.004.079-.345-.098-.019.001-.017.041c.26.233.316.496.486.844l.001.021c-.119.009-.314-.152-.483-.192l-.035.043.532.748.004.08-.54-.188-.018.001a.74.74 0 0 1 -.017.042c.11.076.194.175.269.285l-.243-.131-.018.002-.017.04.654.723c.139-.032.196-.293.299-.22.012-.014.132.084.143.07-.179-.303-.321-.297-.418-.99m.065 1.239c.028.029.054.059.081.089l.019-.002c.006-.091-.044-.078-.1-.087m.419 1.089c-.283-.374-.54-.932-.968-1.122l-.159-.15c-.005.347.542.894.631 1.202l-.019.001c-.376-.265-.802-.414-1.242-.624l-.036.042.654.56c.329.413.57.902 1.045 1.137.222.047.23.093.452.139l.036-.042c-.291-.316-.527-.424-.684-.905.247.071.357.253.712.236l.017-.021zm6.188-2.403c-.785-.426-2.632-.779-3.8-.534-.6.126-1.37.404-1.984.475.998-.117 1.537-.327 2.543-.384.961-.055 2.397.122 3.189.947.495.516 1.02 1.107 3.179 1.107.011 0 .012-.015.019-.022-.14-.108-.425-.052-.628-.081-.375-.055-.87-.112-1.15-.311-.503-.356-.836-.908-1.368-1.197m3.687.075c.243-.198.776-.047 1.037-.023l.036-.042c-.31-.154-1.059-.538-1.306-.041-.118.238.004.484-.072.766-.125.157-.515.046-.679 0l-1.562-.584-.036.042c.344.394.81.659 1.384.776l.455.032c.142-.015.531-.016.598-.116.155-.23-.071-.635.145-.81m-2.62.2-.066-.036c-.005.014-.012.028-.018.041.031.301.155.459.306.622l.059-.064c-.099-.174-.251-.353-.281-.563m1.726-6.572c-.217.057-.401.213-.528-.068l.015-.158.114-.011c.064-.16-.022-.47-.065-.693l-.06-.038-.017-.001c-.35.508.044 1.125.359 1.366l.129.008c.083-.077.102-.148.11-.331zm2.723 2.918c-.134-.476-.366-.709-.574-1.026a7.271 7.271 0 0 1 -.811-1.728c-.082-.179-.256-.357-.337-.535l-.075-.076c-.062.152.085.651.138.834.222.758.36 1.597.862 2.092.195.192.569.366.632.673.106.512-.485.089-.687.216-.082.051-.727.475-.766.415l-.016-.002c-.097-.017.093-.41.007-.518-.364-.392-.512-1.007-.874-1.394-.09-.212.415-.795-.064-1.111-.128.014-.149.107-.254.125l-.252-.089a1.373 1.373 0 0 1 -.732-.649l-.108-.235c-.144-.114-.426-.13-.577-.209.029-.108.061-.098.112-.169-.076-.153-.278-.589-.445-.547-.129.488.217.676.444.897l.208.363c.141.135.359.199.449.381-.042.032-.055.037-.089.082-.264.044-.431-.121-.645-.201l-.342.011c-.125-.184-.182-.532-.372-.65a2.02 2.02 0 0 1 -.08-.005c-.06.034-.077.088-.127.131-.137.022-.178-.015-.25-.085l.095-.132c-.083-.21-.308-.373-.19-.667l-.049-.003c-.174.423.071 1.013.298 1.193l.231.119c.198.185.292.446.559.579l.925.19c.531.232.764 1.047.922 1.683.325 1.315-.73 1.601-1.439 2.062-.274.177-.563.408-.698.709-.152.342-.129.772.083 1.08.089-.178-.036-.486.011-.713.139-.668.678-.87 1.226-1.157.248-.13.505-.251.701-.465.128-.142.488-.705.36-.909.221.353.191.971.537 1.207.133-.136.144-.491.159-.728l.434.496.018.001c.197-.284.451-.511.648-.797a.43.43 0 0 1 .051.056s.336.367.45.979c.003.017.025.026.036.042a1.472 1.472 0 0 1 .03-.429c.094-.472.323-1.046.227-1.387m.87-4.083-.039-.018c-.181.287.166.695.31.822l.018-.001.05-.124c-.049-.276-.247-.439-.339-.679m3.447 3.827c-.201-.612-.086-.922-.441-1.349-.145-.175-.342-.307-.462-.512.094-.131.144-.175.187-.372-.181-.166-.279-.435-.538-.508-.437-.123-.507.414-.966.299-.261-.064-.268-.448-.484-.57l-.04-.038c-.085.099-.124.213-.189.332.084.177.232.503.391.597.259.151.617.035.772.313l-.016.04-.343-.059c-.264-.027-.555.158-.829.051-.181-.07-.283-.309-.438-.413l-.466-.232-.031-.238-.251-.425-.056.003c-.289.602.757 1.376 1.211 1.427l.006.12c-.606-.06-.697-.33-1.089-.594l-.037.022c.005.233.181.353.328.481.345.299.412.545 1.082.434.165-.028.394-.099.582-.056.612.139 1.336.359 1.043 2.027-.047.265-.121.593-.258.817a3.56 3.56 0 0 1 -1.296 1.157c-1.07.54-3.613 1.508-3.96 2.58-.185.573.005 1.399.197 1.889.168.429.39.765.645 1.082.419.521.979.627 1.617.902l.056-.004.036-.042a5.81 5.81 0 0 1 -.889-1.047c.416.149.73.443 1.309.441l.016-.041c-.202-.234-.478-.396-.676-.639-.458-.56-.968-1.534-1.113-2.394l.319.641a4.37 4.37 0 0 0 1.119 1.133l.034-.042c-.4-.395-1.112-1.366-1.242-2.026l.706.837.653.541c.019-.001.037-.003.056-.003l.018-.022c-.309-.599-.775-1.102-.987-1.821.506.482.978 1.227 1.645 1.508l.08.075.035-.043c-.253-.364-.614-.729-.867-1.094-.178-.403-.359-.481-.537-.884.039.012.998.919 1.094 1.05l.057.016.018-.04c-.275-.431-.57-.82-.755-1.375.206.037.382.491.507.649a2.46 2.46 0 0 0 .672.54c-.009-.652-.664-.897-.782-1.55l.348.159.1.094c.078-.101.026-.455.037-.703l.314.201.095-.326.197.168c.029-.075.056-.15.083-.225.316.08.531-.495.777-.646.934-.574 1.655-1.295 1.354-2.617.271.23.054.607.432.715l.041.037c.038-.108-.171-.246-.231-.428m4.831-.845c-1.135.844-2.164 2.95-2.596 4.151-.717 1.998-1.496 3.278-1.834 5.591l.039.037c.277-.529.599-1.265.651-1.921.076.044.074.187.127.252.237-.25.251-.827.351-1.202.147-.558.266-1.163.434-1.747l.212-.614.018-.002.019-.001.012.22c.013.006.129.34.141.346.512-1.981 1.509-4.012 2.938-4.994.977-.671 2.134-.82 3.096-.011-.469-.394-1.464-.372-2.008-.206-.919.279-1.581 1.269-2.155 2.029-.557.736-.93 1.637-1.237 2.521-.722 2.085-.968 2.815-1.76 4.418-.301.608-.684 1.167-.981 1.761-.259.517-.975 1.717-1.422 1.988.245-.498.439-.985.475-1.69-.074-.03-.088-.024-.19-.008l-.001-.02.153-.31c-.068-.024-.174.007-.265-.023l-.038.002c.112-.209.23-.415.285-.678l-.041-.038-.222.074-.043-.077c.192-.289.446-.41.581-.777.326-.877-.049-1.403-.337-2.04l-.263-.664-.001-.021.074-.024c.1.28.62.591.888.686.068-.13-.368-1.089-.292-1.543.205-1.228.995-2.088 1.822-2.734-.008.142.059.238.014.337-.014.019-.04.07-.068.123-.003.006-.006.246-.009.329l.169-.406a1.18 1.18 0 0 0 .357-1.232c-.338-.553-.284-.571-.549-1.298-.273-.75-.476-1.453-.854-2.147l-.246-.366-.119-.093c-.001.178.496 1.142.564 1.347.302.897.304 1.058.654 1.846.167.377.31.842.303 1.367l-.071.084-.019.001c-.27-.421-.331-.54-.902-.625-.123-.018-.28-.013-.356.062-.082.053-.118.118-.12.248-.18.016-.336.082-.404.204-.126.227-.013.949-.066 1.203-.08.383-.177.64-.309 1.006-.039.056-.056.059-.148.069-.08.201-.005.095-.302.015-.034.112.018.217.039.377a.878.878 0 0 1 -.356-.044c-.097.157.145.493.182.656l-.02.001c-.123-.079-.355-.159-.479-.238l-.037.023c.039.191.211.306.284.449l.004.08-.018.001c-.171-.11-.449-.22-.617-.329l-.037.022c.145.59.705.909.866 1.435-.243-.175-.459-.403-.711-.577l-.037.022c.154.698.574 1.037.769 1.635-.229-.169-.693-.428-.831-.69l-.079-.056-.017.022.776 1.413c-.175-.046-.926-.729-1.012-.899l-.199-.167c-.005.006-.011.014-.018.02.134.494.373 1 .641 1.362l.403.456c-.448-.211-.836-.464-1.229-.726-.157.289.688 1.134.758 1.435l.001.021-.037.022c-.31-.35-1.055-.69-1.62-.709l-.019.002c.088.492 1.079 1.099 1.212 1.533-.53-.261-1.169-.522-1.7-.783l-.017.041c.171.252.41.607.486.931-.415-.302-.85-.885-1.449-.932l-.016.041.708.857-.019.002c-.271-.187-.616-.397-.952-.483l-.036.043c.169.243.469.421.569.725l-.495-.41-.151-.113-.179-.137-.198-.151-.214-.161a11.59 11.59 0 0 0 -.675-.474c-.072-.045-.143-.09-.217-.132a4.1 4.1 0 0 0 -.207-.11 1.806 1.806 0 0 0 -.213-.089c-.022-.007-.042-.019-.062-.031s-.041-.02-.055-.034l.085.007.066.007c.052.007.103.017.155.029.125.031.248.068.369.111a4.19 4.19 0 0 1 .198.068l.198.074.193.076.181.074.158.064.133.054.03.012.035-.042c-.444-.295-1.382-.993-1.892-1.105l-.001-.02c.196-.07 1.434.462 1.656.579l.016-.041c-.52-.426-1.013-.988-1.69-1.217l-.021-.039 1.018.298a.29.29 0 0 1 .016-.041c-.219-.21-1.185-.76-1.262-.964l.712.237.018-.021c-.124-.34-1.293-1.278-1.628-1.442l-.035.022c.103.363.548.693.752.995l.022.059c-.284-.101-.39-.326-.634-.386l-.037.036c-.054.052.358.413.394.447l.276.241c.05.044.225.224.225.224-.241-.014-.454-.266-.695-.26h-.019l-.037.052c-.104.15.491.542.647.845-.072-.011-.68-.266-.713-.205l-.017.034c.171.338.513.581.667.915-.14-.061-.384-.115-.523-.176l-.037.018.525.939h-.019l-.248-.151-.055.07.252.461-.019.001c-.192-.125-.533-.413-.594-.644l.093-.037c-.042-.238-.216-.355-.31-.545l-.039-.035v-.017l.151.032.037-.035c-.211-.332-.562-.591-.731-.918l-.001-.017c.161.015.373.211.533.3.098-.148-.447-.76-.526-.955l-.038-.052.458.285.018-.017c-.104-.375-.446-.643-.601-.972l-.038-.034c.257.057.339.29.59.368l.038-.035-.703-1.032-.002-.021c.107-.01.269.12.387.177l.036-.042c-.321-.598-.897-.785-1.296-1.261-.019-.006-.255-.012-.274-.018l-.018.022c.081.579.735.885.985 1.274l.159.15.001.02-.62-.282-.019.001c-.095.66.573 1.196.716 1.697-.264-.093-.48-.453-.655-.58-.21.239.655 1.185.792 1.344l-.018.019c-.3-.093-.46-.302-.74-.39l-.037.02c.165.5.532.944.829 1.324l.001.018c-.364-.056-.541-.296-.8-.456-.226.231.311.973.439 1.122l.001.018c-.425-.14-1.037-.73-1.24-1.104l-.001-.018c.1.008.174.06.174.06a.647.647 0 0 1 .036-.02l-.479-.824.449.268.036-.037c-.197-.267-.515-.71-.599-1.049.135.067.378.134.515.201a1.19 1.19 0 0 0 .035-.037c-.153-.249-.54-.574-.59-.876.151.107.41.213.561.321l.057.014.018-.019-.478-.789.368.158a.72.72 0 0 1 .036-.023c-.097-.348-.514-.479-.623-.789.075-.014.181-.011.218-.047l-.889-1.173-.099-.074-.017.021c.15.375.311.644.522.929l.001.02c-.245-.059-.536-.197-.681-.379a1.143 1.143 0 0 1 -.058-.037l-.036.043c-.055.064.362.646.42.718.089.112.19.214.299.305.099.083.228.159.259.298-.382.03-.625-.329-.967-.429a4.67 4.67 0 0 0 .115.278c.116.235.292.448.453.651.075.094.156.187.221.289.054.085.14.213.142.263-.132.001-.273-.088-.392-.144-.039-.018-.39-.182-.383-.214-.049.257.25.587.386.766.078.102.155.202.227.309.054.079.175.234.175.234-.139.011-.285-.078-.4-.152-.087-.056-.248-.21-.356-.203l-.018.001c.116.451.669.781.797 1.136l-.914-.492c-.113.185.466.796.58.938l.003.052c-.216-.016-.335-.162-.485-.253l-.038.02c.105.361.348.572.519.852l.001.018s-.197-.098-.22-.115a1.75 1.75 0 0 1 -.216-.189c-.26-.269-.373-.592-.579-.909-.056-.087-.119-.167-.176-.253a1.403 1.403 0 0 1 -.096-.217c.132.077.263.16.398.233.05.026.123.058.175.059-.013-.171-.144-.391-.246-.521-.179-.23-.404-.422-.607-.763l.018-.001c.032-.002.307.156.396.216.038.026.418.258.426.245.041-.078-.1-.26-.145-.323a2.21 2.21 0 0 0 -.26-.287c-.173-.166-.401-.323-.529-.534l-.041-.068.755.343.017-.036a6.478 6.478 0 0 0 -.769-.932c-.133-.138.436.05.488.044-.001-.106-.25-.347-.319-.412l-.318-.301c.079-.071.171-.028.282-.017l.016-.041c-.163-.244-.392-.566-.66-.68l-.019.001-.016.041.289.463-.379-.017-.017.021c.081.302.287.538.438.774l-.073.044-.658-.3-.04-.037c-.117.267.971 1.17 1.134 1.392l.019.018.004.06-1.317-.6-.019.001-.017.042 1.472 1.37.005.08-.036.023c-.354-.203-.771-.412-1.2-.508l-.018.002-.016.041c.363.254 1.794 1.873 1.906 2.318-.226-.226-.345-.453-.571-.679-.448-.301-.824-.571-1.382-.756l-.036.042c.492.484 1.309 1.027 1.656 1.62l.001.021-.018.001c-.765-.378-1.594-.937-2.794-.844l-.016.041c.514.294 1.692.78 2.057 1.208-.025-.023-.37-.058-.508-.055-.361.006-.937-.035-1.297.011-.394.05-.781.145-1.162.262-.021.006-.314.14-.294.159.071.065.211.074.298.087.182.026.366.038.551.047a12.44 12.44 0 0 0 1.206.005c.121-.005.24-.016.36-.017-.133.086-.344.101-.494.133a10.02 10.02 0 0 1 -.591.105c-.394.061-.788.112-1.176.204-.092.021-.291.056-.38.083.116.175.557.189.74.229.124.027.249.049.375.067.111.017.277.004.379.05l.039.018.001.019c-.069.09-.267.151-.387.185l-.016.04c-.012.029.853.237.928.248.348.049.665.003 1.01-.021-.034.089-.197.098-.271.116-.045.009-.355.044-.361.058l-.016.041c.211.221.89.427 1.303.36.92-.148 2.16-.204 3.091-.229.723-.018 1.437.104 2.143.252 1.363.287 2.73.737 4.133.737 1.167 0 2.488-.318 3.438-.985 2.599-1.825 3.108-5.467 4.216-8.371.786-2.058 2.634-6.351 5.225-3.995l.02-.001.047-.163.381.057c.041-.06.036-.143.007-.221l-.001-.019.246.004.055-.383c-.992-1.348-3.107-1.239-4.485-.214m6.739 3.244c-.011-.148-.015-.297-.022-.446a2.88 2.88 0 0 0 -.095-.696c-.148-.513-.637-.944-1.091-1.148-.233-.105-.486-.151-.719-.26l-.016.041c.266.388.877.586 1.021 1.058l-.272-.143-.017.041.609.763.003.08-.272-.143c-.051.131.281.403.369.538l.002.019c-.107-.001-.122-.016-.192-.048l-.036.023.427.573.006.1-.019.002-.235-.146-.018.001-.017.041.646.761.076-.005c.049-.003-.131-.927-.138-1.006m-.029 1.417.019-.001.094-.006c-.298-.512-.793-.863-1.114-1.373-.438-.696-.635-1.859-1.552-2.147a1.4 1.4 0 0 1 -.04-.038l-.036.043.238.906c.279.697.69 1.145 1.11 1.653.165.199.34.506.582.605l.02.039c-.446-.111-1.383-1.072-1.539-1.547-.025-.019-.052-.037-.079-.055-.005.007-.01.014-.017.021.231 1.56 1.705 1.666 2.501 2.549l.072-.045zm-30.328 19.23-.186.051.185-.071zm-3.517-7.506c-.182-.304-.18-.762-.028-1.028s.118-.865.118-.865c.327.42.099.794-.027 1.031s-.063.862-.063.862m-1.124 3.729c.11.55-.066.834-.066.834s-.019-.343-.091-.653c-.165-.707-1.308-.862-1.641-1.899s-.031-1.457-.031-1.457c-.08.196-.006.773.157 1.249.246.712 1.558 1.361 1.672 1.926m-7.412-.56a10.433 10.433 0 0 1 -5.377 5.976 10.434 10.434 0 0 1 -8.027.424 10.44 10.44 0 0 1 -5.976-5.377 10.44 10.44 0 0 1 -.424-8.028 10.433 10.433 0 0 1 5.378-5.975 10.434 10.434 0 0 1 8.027-.424 10.44 10.44 0 0 1 5.976 5.377 10.434 10.434 0 0 1 .423 8.027m-.569-.201a9.834 9.834 0 0 0 -.399-7.566 9.831 9.831 0 0 0 -5.632-5.068 9.834 9.834 0 0 0 -7.566.399 10.24 10.24 0 0 0 -1.049.58c.329.233.769.294 1.166.159a10.26 10.26 0 0 1 2.665-.688 6.04 6.04 0 0 1 4.39 1.283c1.04.849 1.653 1.971 1.773 3.246.183 1.957-.949 3.928-2.816 4.904l-3.301 1.781c-1.164.647-1.827 1.952-1.65 3.248.123.867.586 1.65 1.286 2.177a3.401 3.401 0 0 0 2.435.696c1.781-.191 3.152-1.814 3.015-3.556l-.006-.042-.008-.051.115-.006.178-.009.006.046a11.74 11.74 0 0 1 .367 4.082 9.836 9.836 0 0 0 5.031-5.615m-13.78-10.647a2.14 2.14 0 0 1 -.908-.817c-.023 1.305.19 2.608.636 3.88l.007-.001a4.877 4.877 0 0 1 .265-3.062m6.293 4.893.201-.137c1.493-1.009 1.533-3.029.515-4.344l-.074-.078c-.879-.882-2.164-1.399-3.438-1.383a7.111 7.111 0 0 0 -1.823.326c-1.119.552-1.536 1.667-1.687 2.323.109-.302.27-.591.478-.862.611-.794 1.588-1.335 2.612-1.446a4.08 4.08 0 0 1 2.935.85c.699.564 1.116 1.311 1.207 2.161.1.94-.256 1.887-.926 2.59m-5.864 7.293a4.07 4.07 0 0 0 .827 2.314 3.49 3.49 0 0 1 1.328-4.667 3.35 3.35 0 0 1 .378-.245l3.302-1.782c1.832-.958 2.942-2.888 2.761-4.805-.116-1.247-.716-2.345-1.734-3.175a5.317 5.317 0 0 0 -.855-.569 4.02 4.02 0 0 1 1.742 3.801v.037c-.023 1.548-1.004 3.014-2.5 3.737l-3.014 1.626-.024-.045.023.046c-1.41.722-2.287 2.185-2.234 3.727m8.134 3.987a1.89 1.89 0 0 0 -.735-.807 6.394 6.394 0 0 1 -3.112.974l-.002-.052.001.052a4.387 4.387 0 0 1 -3.023-1.204 4.254 4.254 0 0 1 -1.32-2.471 5.08 5.08 0 0 1 1.842-5.371l-.206.115c-1.768.984-2.759 2.961-2.467 4.921.193 1.286.89 2.444 1.965 3.258a5.148 5.148 0 0 0 3.666 1.041 9.36 9.36 0 0 0 2.375-.605l.018.047-.015-.048c.343-.113.72-.052 1.013.15m-13.049-4.562a9.831 9.831 0 0 0 5.632 5.068 9.83 9.83 0 0 0 7.454-.348 1.055 1.055 0 0 0 -1.02-.211 9.35 9.35 0 0 1 -2.397.61l-.006-.051.005.051a5.245 5.245 0 0 1 -3.738-1.061c-1.096-.831-1.808-2.011-2.004-3.324-.299-2.002.713-4.021 2.519-5.026l3.34-1.802c1.224-.641 1.955-1.927 1.818-3.203-.087-.823-.492-1.547-1.17-2.092a3.963 3.963 0 0 0 -2.859-.828c-.998.108-1.948.634-2.542 1.406-.521.677-.73 1.468-.605 2.288h-.001l.001.007.01.051-.273.023-.025.003-.007-.034a11.17 11.17 0 0 1 -.653-4.054 9.827 9.827 0 0 0 -3.879 4.96 9.84 9.84 0 0 0 .4 7.567m18.32-8.746a10.336 10.336 0 0 0 -5.919-5.325 10.32 10.32 0 0 0 -7.948.42 10.322 10.322 0 0 0 -4.284 3.779 10.25 10.25 0 0 0 -1.179 4.503c.085-.752.255-1.5.515-2.231a9.936 9.936 0 0 1 5.12-5.691 9.93 9.93 0 0 1 7.643-.403 9.94 9.94 0 0 1 5.692 5.12 9.935 9.935 0 0 1 .402 7.644 10.07 10.07 0 0 1 -1.003 2.059c.955-1.249 1.61-2.7 1.915-4.244a10.34 10.34 0 0 0 -.954-5.631m14.946 2.641c-.05-.001-.064.046-.074.088-.004.022-.006.045-.012.067-.005.017-.003.124-.003.136-.039-.081-.11-.245-.149-.313-.073-.127-.116-.196-.153-.34-.028-.109-.048-.281-.028-.391.065.115.083.254.105.384.009.054.018.126.053.169l.002.004c.056.065.096-.024.096-.078 0-.011 0-.143-.012-.142l.019-.001c.008-.001.058.138.065.153a.197.197 0 0 0 .053.062c.035.02.063.024.06-.023a1.357 1.357 0 0 0 -.032-.22.64.64 0 0 0 -.155-.303.6.6 0 0 1 -.102-.183c.054.027.106.088.131.11.038.034.068.08.094.125.073.128.104.276.152.415l.048.143c.015.04.046.096.048.139.004.059.012.119.009.178-.08-.031-.131-.178-.215-.179m11.094-8.931c-.495.47-.592 1.01-.633 1.899l.173.051c.132.719.275 1.205.473 1.752l-.057.003c-.341-.316-.555-.73-.583-1.345-.102-.059-.065-.014-.207.012-.141-.355.048-.657.061-.964l-.02-.019-.201.113-.019.001c-.114-.233.078-.495.17-.691.324-.696 1.113-.978 1.779-1.346l.019-.001c-.086.231-.753.343-.955.535m-11.729 11.714c.142-.018.349-.137.349-.137-.075.374-.612.599-1.006.622-.172.01-.382-.022-.527-.127 0 0 .322.059.472.032s.263-.057.399-.121c.017-.008.179-.087.166-.094-.129-.069-.287-.064-.427-.061-.092.003-.359.013-.462-.085.108-.043.297-.075.403-.123.1-.044.197-.095.296-.141l.017-.041c-.262.016-.555.028-.777-.052l-.042-.058c.401.076.813.053 1.182-.153a.576.576 0 0 1 -.344.457l-.211.088c-.005.071.443.004.512-.006m-1.745-.789c.099.23-.127.554-.207.713-.012-.362.172-.403.207-.713m.193.088c.117.139-.009.402-.087.485-.014-.163.064-.31.087-.485m2.852.562c.114-.052.236-.054.334-.126a.113.113 0 0 0 .038-.051.85.85 0 0 0 -.327-.063c-.05-.002-.304-.031-.334.009.1-.132.294-.178.451-.195.037-.004.049-.006.065-.042-.145-.11-.55-.064-.738-.011.095-.121.284-.166.425-.195.051-.011.101-.018.153-.023a.161.161 0 0 0 .093-.048c-.186-.108-.409-.15-.673-.128.358-.167.714.055.967.11l.021.036c-.008-.013-.089.042-.111.049-.052.014-.105.022-.157.036a1.24 1.24 0 0 0 -.065.022l-.055.029c.192.051.239.091.391.143.014.017.123.047.136.065-.096.005-.193.003-.289.015-.05.007-.253.039-.181.08.06.034.168.041.242.061.055.015.276.06.146.116-.091.038-.191.063-.284.097-.171.06-.34.135-.514.185-.015 0 .166-.125.266-.171m.526.179.154.05c.133-.131.124-.385.255-.516-.075.268-.075.657-.336.761l-.077-.015-.061-.096.031-.122zm-1.446-11.57c-.082-.141-.156-.279-.241-.404l.225.121c.005-.014.01.297.016.283m-45.435 6.887c.042-.439.21-.623.335-.75 0 0-.168.537-.125.92s.265.848.251 1.103c0 0-.502-.835-.461-1.273m-.53 6.45c-.084.481.041.722.041.722s-.125-.085-.195-.283 0-.354-.167-.722 0-.523 0-.523c-.098.24.405.325.321.806m2.465-1.519c.092-.083-.006-.148-.043-.225a.768.768 0 0 1 .034-.631c.099-.188.293-.306.475-.396.19-.093.452-.151.663-.155a.47.47 0 0 0 -.225.146c-.069.071-.116.05-.213.079-.083.024-.187.039-.261.091-.131.092-.164.271-.111.336.103-.075.269-.218.404-.252.11-.028.274-.12.38-.073-.048.052-.16.048-.23.083s-.142.084-.213.12a.278.278 0 0 0 -.15.16c-.036.074-.007.099-.123.176-.171.114.112.263.16.399.084.234-.103.215-.267.223-.01.116.234.185.219.303-.06.011-.124-.033-.18-.05s-.119-.027-.18-.03c-.124-.006-.402.01-.402.01s.14-.062.24-.071c.085-.008.292-.021.182-.133-.101-.102-.302.122-.661-.082.053.007.103.01.158.011.086.001.278.022.344-.039m3.524 4.252c-.054-.066-.128-.149-.166-.196-.007-.008-.12-.194-.092-.187.062.015.118.087.312.074-.01-.07-.135-.186-.118-.284.17.108.3.075.412.067-.065-.132-.173-.272-.148-.317 0 0 .171.098.309.039 0-.027-.058-.127-.058-.154.097-.026.147-.034.198-.04-.023-.086-.068-.183.124-.166-.003-.081-.065-.127-.033-.178 0 0 .129-.003.198 0 .016-.079.009-.253.087-.288-.091.084.011.242-.018.355-.045-.008-.106.016-.149.007.028.046.021.121.038.172-.041-.011-.105.016-.147.006.017.063.002.122.038.172-.077.005-.16.005-.237.007a3.37 3.37 0 0 1 .082.193.79.79 0 0 1 -.286-.026c-.007.124.256.312.242.321-.113.072-.404-.039-.458-.036.051.091.054.229.156.35-.069-.004-.291-.02-.308-.11.033.186.088.186.174.262-.141.077-.381.026-.545.118.018-.08.275-.139.393-.161m-.127-2.61c-.192.071-.385.08-.472.084 0 0 .902-.355.985-.408 0 0-.32.252-.513.324m-9.364-7.983s.355.445.53 1.175c0 0-.258-.607-.402-.688 0 0-.047.162-.56.438 0 0 .481-.746.432-.925m10.048 4.725-.04-.008c-.045-.008-.01-.322-.193-.477-.067-.057-.077.439-.144.435a1.87 1.87 0 0 0 -.374.016c-.227.037-.343.206-.343.206-.146-.2-.459-.287-.771-.327l-.075-.008c-.048-.005-.026-.096-.079-.264-.032-.102-.093-.213-.124-.214-.049-.002-.137.444-.167.444a1.02 1.02 0 0 0 -.093.004c-.318.02-.861.116-.873-.321-.006-.213.06-.312.13-.448s.49-.584.676-.638.466.054.53.083.058.112.058.171c0 0-.079.308 0 .364.046.032.198-.257.269-.273 0 0 .065-.017.169-.02.287-.007.655-.071.935.122.034.024.09.362.149.374s.132-.294.143-.4c.013-.131.114-.183.241-.193.165-.013.203.18.229.322s0 .527.025.63.063.361.038.425-.136.03-.316-.005m-.346-.65-.004-.003-.002.006a.228.228 0 0 1 -.146-.087c-.158-.23-.395-.168-.545-.176s-.278-.072-.483-.04c-.136.021-.229.144-.324.16s-.174-.16-.269-.192-.271-.013-.364.008c-.276.06-.489-.016-.351.098a.5.5 0 0 0 .219.056c.063 0 .161-.043.296-.033.21.016.223.193.508.281.217.067.413-.041.592-.044.132-.004.215.04.334.09.188.08.484.112.533-.121l.007.001m-1.269 4.176s-.138.056-.27.063c-.074.004.207.21.298.217 0 0-.235 0-.394-.14-.122-.107-.201-.021-.318-.119 0 0 .221-.013.207-.035-.049-.074-.276-.245-.276-.245.138.014.377.231.435.252.076.028.18.007.318.007m1.172-1.59c-.124.011-.134.113-.181.126-.125.034-.396-.149-.136-.298.553-.316.6.24.6.24s-.159-.08-.283-.068m-13.573-8.539-.026-.003s-.048-.099.026.003m13.747 5.137c-.203.064-.331-.052-.813-.078s-.482.085-.727-.035c-.179-.088-.272-.123-.143-.107.153.019.187.081.326.107s.277-.119.608-.093.473.146.573.161c.271.041.48-.239.48-.239s-.101.219-.304.284m-21.702-13.504c-.071.336-.529 1.081-.529 1.081s-.098-.391-.107-.618l-.036-.689c.099-.128.466-.552.466-.707 0-.272-.219-.383-.219-.383.099-.027.386-.254.511-.517s.215-.908.215-.908l.224.181c.018.137-.027.672-.045.745s-.134.181-.224.372-.184 1.107-.256 1.443m-1.257 5.664c.111-.592.324-.884.565-1.429.12-.273.27-.537.333-.831.068-.31-.031-.58-.152-.863-.059-.141-.169-.238-.177-.399-.008-.155.059-.306.119-.444.078-.181.161-.36.229-.546.012.323-.035.6.063.918.156.506.316 1.062.129 1.578s-.411.742-.684 1.21c-.144.246-.372.52-.425.806m1.41-1c.08.173.582.672.582.672-.081.054-.108.336-.108.336s-.197-.3-.278-.445-.196-.563-.196-.563m-4.761-1.971s-.024-.03-.056-.083c-.079-.128-.216-.39-.216-.671 0-.398.217-.7.136-1.043s-.325-.824-.325-1.152.203-.919.203-.919v.164s-.094.261.095.713.447.893.447 1.194-.335.894-.366 1.084a1.69 1.69 0 0 0 .082.713m5.029 3.496c-.376-.545-.492-1.08-.492-1.08.018.127.635.807.635.807-.035.055-.143.273-.143.273m20.105 15.151c.043.066-.011-.222-.011-.222l-.012-.175.289.462-.072-.415s.173.241.303.241c0 0-.065.131-.173.044 0 0 .151.372.432.175 0 0-.173.35-.497.131 0 0-.043.351-.411.351 0 0 .218-.107.24-.317.04-.382-.061.085-.283.207 0 0 .173-.372-.021-.613 0 0 .172.066.216.131m-1.559.302c.108-.188.175-.361.271-.524-.018.107-.04.362.062.438.074-.113.173-.366.239-.543.167.551-.044 1.192-.286 1.415.086-.217.258-.666.187-.88-.207.193-.363.835-.605.991.183-.346.242-.844.274-.912-.113.243-.564.618-.841.649.131-.106.166-.122.254-.192.13-.102.366-.308.445-.442m-2.311-.017c-.605.701-1.037.46-1.037.46.281.088.475-.263.929-.679.533-.488.562-.438.756-.57 0 0-.157.221-.648.789m1.47-.716c-.143.006-.537.044-.676.042.16-.092.758-.079.881-.189-.095.274-.555.466-.787.689.188-.112.764-.263.892-.494-.027.526-.668 1.413-1.267 1.668.109-.112.371-.264.626-.594s.302-.493.377-.735c-.182.112-.746.418-1.164.507.071-.087.961-.868 1.118-.894"/></g></g></g></g></svg>